<?xml version="1.0" encoding="utf-8"?>
<!-- Generator: Adobe Illustrator 27.5.0, SVG Export Plug-In . SVG Version: 6.00 Build 0)  -->
<svg version="1.1" xmlns="http://www.w3.org/2000/svg" xmlns:xlink="http://www.w3.org/1999/xlink" x="0px" y="0px"
	 viewBox="0 0 2000 2000" style="enable-background:new 0 0 2000 2000;" xml:space="preserve">
<g id="Layer_3">
	<rect style="fill:#F9F0DE;" width="2000" height="2000"/>
</g>
<g id="Layer_2">
	<path style="fill:#603913;" d="M1053.916,1204.119c17.932,7.91,77.112-21.802,37.796-76.365
		c53.681,47.536,98.428,9.411,86.745-15.068c65.774,17.524,76.946-62.451,22.07-69.705c19.961-14.131,0.891-64.676-40.93-59.33
		c76.165-22.612,64.253-74.558,36.877-78.116c25.801-47.288-22.112-75.347-61.277-31.385c3.215-24.292-20.95-39.178-48.193-15.743
		c23.489-36.419,9.992-75.532-21.809-64.456c5.12-50.962-68.337-66.129-81.677,8.026c-18.906-7.375-29.367,7.921-34.065,24.645
		c-12.847-46.413-55.675-46.452-66.518-21.499c-27.002-62.632-113.507-6.143-61.175,59.135
		c-23.362,7.753-27.209,36.473-0.088,51.061c-40.204-6.05-50.464,27.219-30.081,38.591c-76.677-1.497-73.172,81.619-2.845,79.365
		c-28.641,23.611,17.479,31.807,23.335,29.128c-49.824,23.963-38.037,59.841-9.525,62.803c-37.942,55.171,35.01,80.161,58.948,53.35
		c9.862,34.021,50.26,7.937,59.963-17.28c-9.134,67.532,33.168,70.625,57.332,53.117
		C981.472,1290.962,1078.032,1256.692,1053.916,1204.119z M1193.389,1047.683c24.304,9.124,20.942,35.156,16.274,44.246
		c-6.762,13.149-30.303,18.247-42.314,9.116c-1.062,17.302-31.199,52.37-76.416,10.769c-27.891-25.654-59.583-67.917-66.609-82.231
		c-0.103-0.198-0.313-0.444-0.51-0.735c0.12-0.139,0.205-0.3,0.315-0.437l59.533,41.492c-2.512,4.26-2.234,9.788,1.152,13.762
		c4.268,5.007,11.787,5.608,16.795,1.34c5.01-4.27,5.61-11.79,1.345-16.797c-4.072-4.778-11.072-5.488-16.064-1.858l-59.98-41.814
		c0.664-1.089,1.191-2.249,1.709-3.401l82.959,36.706c-1.152,3.767-0.452,8.015,2.292,11.233c4.272,5.015,11.79,5.61,16.797,1.345
		c5.012-4.27,5.615-11.787,1.343-16.802c-4.267-5.007-11.785-5.608-16.797-1.333c-0.493,0.417-0.911,0.894-1.323,1.372
		l-83.64-37.005c0.007-0.005,0.007-0.005,0.01-0.01l80.09,12.056c0.469,1.396,1.194,2.737,2.207,3.928
		c4.27,5.01,11.785,5.608,16.797,1.338c5.01-4.27,5.61-11.782,1.34-16.792c-4.27-5.014-11.782-5.613-16.792-1.343
		c-2.463,2.097-3.848,4.978-4.126,7.956l-78.557-11.821c0.078-0.603,0.225-1.196,0.271-1.804
		c36.902-3.816,75.442-8.323,110.833-20.057C1182.827,992.079,1197.317,1030.661,1193.389,1047.683z M1096.677,867.99
		c17.512-11.052,32.864,11.874,33.703,18.985c19.558-13.043,53.682-20.931,54.617,3.581c0.012,0.345-1.03,13.003-7.629,19.928
		c8.75-1.596,30.625,17.34,15.464,33.646c-15.535,16.703-33.354,27.732-54.402,34.939c-23.132,8.098-95.146,22.475-107.097,24.745
		c0.117-1.746-0.11-3.479-0.481-5.202l65.332-28.179c0.445,0.943,0.974,1.862,1.682,2.693c4.267,5.012,11.787,5.608,16.794,1.342
		c5.012-4.269,5.615-11.786,1.345-16.797c-4.27-5.01-11.79-5.611-16.799-1.342c-2.854,2.431-4.224,5.921-4.128,9.398l-65.72,28.343
		c-0.689-1.557-1.511-3.037-2.466-4.455l74.475-51.924c0.056,0.074,0.093,0.152,0.156,0.227c4.268,5.008,11.787,5.609,16.797,1.341
		c5.012-4.271,5.608-11.788,1.343-16.797c-4.27-5.011-11.787-5.613-16.802-1.342c-3.655,3.115-4.932,7.959-3.711,12.299
		l-75.21,52.438c-0.205-0.227-0.398-0.486-0.613-0.708l40.671-47.697c4.358,3.211,10.484,3.15,14.776-0.508
		c5.01-4.27,5.615-11.786,1.345-16.798c-4.27-5.011-11.792-5.613-16.804-1.341c-4.46,3.801-5.395,10.182-2.532,15.072
		l-41.042,48.127c-1.968-1.462-3.987-2.593-5.903-3.22c2.134-3.301,3.928-7.31,5.151-9.291c5.644-9.105,10.825-18.496,16.435-27.623
		c7.969-13.207,17.713-25.116,26.524-37.75C1071.111,890.996,1082.483,876.945,1096.677,867.99z M973.32,809.346
		c4.07-1.853,13.909-3.37,16.968,0.785c-3.306-4.487,17.063-30.19,33.572-32.255c25.718-3.213,30.374,4.378,36.467,25.343
		c3.22-4.807,30.945-0.056,26.939,20.491c-2.903,14.923-6.121,30.642-13.023,44.499c-7.764,7.71-13.66,17.564-19.849,26.039
		c-16.253,22.269-37.676,65.543-46.577,82.172c-0.445-0.123-0.906-0.161-1.355-0.265l33.342-75.865
		c2.209-0.29,4.37-1.179,6.191-2.731c5.01-4.268,5.615-11.787,1.345-16.801c-4.27-5.008-11.792-5.608-16.799-1.339
		c-5.012,4.268-5.613,11.791-1.345,16.799c1.533,1.797,3.491,2.999,5.586,3.643l-33.194,75.536
		c-0.163-0.013-0.317-0.006-0.483-0.013l13.298-93.24c2.141-0.316,4.221-1.184,5.989-2.689c5.012-4.271,5.613-11.789,1.343-16.797
		c-4.268-5.012-11.787-5.613-16.799-1.342c-5.01,4.268-5.608,11.786-1.338,16.797c1.633,1.92,3.752,3.181,6.028,3.781
		l-13.342,93.544c-0.943,0.077-1.885,0.161-2.818,0.322l-7.876-68.618c1.443-0.471,2.81-1.207,4.033-2.247
		c5.012-4.271,5.61-11.793,1.34-16.802c-4.265-5.01-11.789-5.613-16.799-1.341c-5.007,4.268-5.608,11.789-1.338,16.798
		c2.112,2.48,5.019,3.872,8.027,4.137l7.947,69.254c-0.266,0.09-0.537,0.127-0.801,0.222c-1.57-3.546-21.439-64.461-26.045-92.11
		C958.891,866.654,950.724,819.268,973.32,809.346z M829.997,865.072c-16.929-19.78-1.769-43.438,6.031-51.231
		c16.174-16.042,33.273-9.845,48.636,2.932c-1.792-11.952,45.391-21.592,62.377,21.794c-0.357,2.761-0.571,5.423-0.647,7.871
		c-0.798,26.74,5.669,53.749,14.169,78.928c3.368,9.96,11.24,29.907,16.662,42.889l-29.778-59.777
		c3.716-4.372,3.854-10.895,0.009-15.408c-4.269-5.008-11.786-5.609-16.793-1.343c-5.011,4.271-5.615,11.791-1.346,16.799
		c3.604,4.231,9.518,5.276,14.291,2.938l31.045,62.317l-59.755-82.927c2.398-4.228,2.083-9.665-1.258-13.586
		c-4.268-5.008-11.789-5.613-16.796-1.345c-5.013,4.27-5.61,11.791-1.341,16.801c4.096,4.81,11.159,5.507,16.156,1.786
		l65.011,90.213c-0.757,0.718-1.487,1.431-2.173,2.136l-68.481-61.867c3.679-4.375,3.8-10.875-0.032-15.37
		c-4.268-5.008-11.785-5.614-16.797-1.344c-5.011,4.271-5.606,11.788-1.338,16.798c3.623,4.253,9.575,5.296,14.363,2.909
		l65.597,59.26c-8.245-5.991-27.052-19.528-36.228-25.297c-17.529-11.011-79.443-44.399-92.613-50.177
		C803.92,896.403,824.505,870.56,829.997,865.072z M819.117,1049.167c-22.123,4.473-22.063-17.427-20.604-22.329
		c-38.867,1.084-45.206-28.708-38.854-40.004c10.625-18.91,34.036-24.822,53.638-28.754c-26.12-10.735-5.922-39.409,18.008-36.008
		c33.985,10.226,102.173,52.322,137.457,73.683c-0.027,0.078-0.051,0.154-0.081,0.239l-67.412-21.694
		c2.153-4.172,1.726-9.398-1.506-13.19c-4.271-5.012-11.791-5.609-16.8-1.34c-5.01,4.269-5.611,11.786-1.341,16.798
		c4.144,4.864,11.325,5.528,16.323,1.665l69.38,22.325c-0.148,0.664-0.298,1.326-0.409,2l-98.188-12.924
		c0.696-3.455-0.094-7.18-2.561-10.076c-4.268-5.007-11.791-5.612-16.799-1.343c-5.01,4.268-5.608,11.794-1.34,16.802
		c4.266,5.008,11.791,5.612,16.798,1.341c0.762-0.647,1.385-1.394,1.946-2.176l99.733,13.122c-0.01,0.52,0.03,1.033,0.047,1.543
		l-76.924,5.571c0.031-2.779-0.851-5.569-2.797-7.849c-4.266-5.007-11.784-5.61-16.797-1.34c-5.008,4.268-5.608,11.787-1.341,16.794
		c4.273,5.012,11.789,5.613,16.797,1.345c1.362-1.16,2.363-2.566,3.064-4.092l50.425-3.652c-2.922,0.625-5.615,1.247-7.758,1.821
		c-22.111,5.921-43.627,13.645-65.316,20.894C850.557,1043.464,835.13,1045.938,819.117,1049.167z M871.312,1163.452
		c-22.267,21.697-70.106-3.818-61.254-39.976c-20.056-6.997-24.497-41.57,14.734-61.502c12.477-1.242,106.466-40.383,142.926-45.29
		c0.184,0.637,0.426,1.404,0.704,2.224l-61.017,27.441c-0.026-0.029-0.047-0.073-0.072-0.102
		c-4.269-5.012-11.791-5.615-16.802-1.345c-5.01,4.265-5.608,11.792-1.34,16.799c4.266,5.007,11.791,5.613,16.8,1.343
		c3.703-3.157,4.981-8.093,3.677-12.481l60.543-27.231c0.4,0.835,0.842,1.675,1.326,2.51l-76.322,57.656
		c-0.052-0.059-0.088-0.134-0.139-0.193c-4.271-5.012-11.793-5.613-16.802-1.345c-5.01,4.27-5.609,11.792-1.341,16.804
		c4.266,5.002,11.789,5.605,16.797,1.338c3.661-3.12,4.939-7.969,3.714-12.315l76.863-58.066c0.493,0.566,1.035,1.086,1.582,1.589
		l-54.761,62.038c-4.346-3.117-10.393-3.042-14.648,0.583c-5.008,4.27-5.612,11.79-1.338,16.804
		c4.268,5.007,11.785,5.605,16.794,1.335c4.508-3.84,5.413-10.298,2.442-15.2l53.115-60.173
		c-8.674,13.821-45.12,72.08-52.273,91.269C901.501,1191.592,872.747,1181.125,871.312,1163.452z M983.94,1199.194
		c-13.396,13.408-66.538,4.937-51.746-62.28c4.91-22.317,45.076-84.475,53.337-99.514c2.163,0.981,4.434,1.646,6.734,2.136
		l-14.355,66.606c-4.051-1.784-8.938-1.267-12.533,1.797c-5.008,4.268-5.612,11.787-1.341,16.797
		c4.27,5.01,11.789,5.608,16.797,1.343c5.015-4.275,5.615-11.789,1.345-16.797c-0.017-0.025-0.037-0.037-0.058-0.059l14.641-67.922
		l14.321,87.893c-2.055,0.339-4.063,1.184-5.771,2.642c-5.012,4.27-5.608,11.787-1.338,16.797
		c4.265,5.007,11.785,5.615,16.794,1.343c5.012-4.27,5.608-11.789,1.343-16.797c-1.675-1.965-3.848-3.223-6.167-3.806
		l-14.541-89.207c2.469-0.181,4.907-0.64,7.288-1.384l24.763,60.495c-0.061,0.049-0.132,0.083-0.19,0.137
		c-5.012,4.265-5.613,11.785-1.343,16.795c4.27,5.01,11.79,5.61,16.797,1.343c5.012-4.272,5.61-11.787,1.343-16.799
		c-3.132-3.677-8.01-4.951-12.366-3.696l-24.565-60.025c2.153-1.055,4.25-2.27,6.194-3.828c12.622,27.93,50.142,73.386,59.81,83.218
		c20.757,32.407,10.845,72.649-39.658,75.154C1052.598,1232.962,997.773,1256.194,983.94,1199.194z"/>
	<path style="fill:#603913;" d="M1539.558,510.802c123.445-48.642,261.05-82.67,346.038-192.753
		c46.294-59.972,82.571-164.971,65.559-259.636c-4.043-22.451-29.817-40.754-53.625-36.238
		c-21.433,4.048-40.708,29.335-25.703,49.679c6.614,8.988,19.478,13.761,29.082,6.479c7.644-5.784,10.103-19.166-0.718-23.41
		c-4.983,5.585,5.002,9.049-1.441,15.432c-4.451,4.385-10.693,3.474-15.151-0.204c-14.939-12.414-0.513-32.189,14.221-35.884
		c17.442-4.37,34.573,8.975,42.021,23.871c1.9,3.838,3.267,7.834,4.363,11.907c-19.372,25.39-39.419,50.811-61.145,74.599
		c0.01-3.299-0.32-6.595-1.116-9.801c-3.413-13.432-14.038-24.124-28.604-24.109c-15.278,0.071-30.735,14.994-21.536,30.666
		c7.661,12.624,31.431,4.435,21.895-7.848c-6.243,1.754-5.339,12.211-13.333,4.28c-6.589-10.136,8.481-16.57,16.13-15.011
		c16.692,3.384,18.299,21.769,12.94,36.236c-16.458,16.851-33.933,32.627-52.795,46.664c1.142-4.592,1.567-9.402,0.979-14.167
		c-1.636-13.735-10.794-25.731-25.227-27.61c-15.12-1.92-32.441,10.878-25.329,27.609c5.94,13.501,30.61,8.485,22.715-4.878
		c-4.463,0.603-9.309,12.362-13.66,2.678c-4.277-9.485,7.131-14.841,14.69-13.75c20.554,3.001,18.386,26.791,9.109,41.716
		c-7.109,4.657-14.36,9.113-21.926,13.209c-14.343,7.831-29.204,14.468-44.426,20.31c3.45-6.744,4.849-14.421,3.95-22.008
		c-1.633-13.732-10.759-25.76-25.229-27.612c-15.115-1.92-32.405,10.848-25.298,27.576c5.913,13.538,30.545,8.486,22.715-4.878
		c-4.492,0.645-9.377,12.365-13.721,2.682c-4.238-9.451,7.192-14.845,14.722-13.715c21.333,3.073,18.159,28.657,8.022,43.374
		c-22.666,7.911-45.896,14.457-69.089,20.907c5.012-7.443,7.195-16.595,6.142-25.631c-1.667-13.768-10.791-25.73-25.266-27.574
		c-15.154-1.954-32.405,10.846-25.33,27.54c5.947,13.57,30.613,8.486,22.718-4.876c-4.461,0.607-9.312,12.358-13.692,2.712
		c-4.275-9.486,7.158-14.878,14.722-13.782c22.488,3.296,17.756,31.536,6.284,45.664c-15.544,4.439-31.055,8.909-46.277,13.97
		c-9.097,3.013-18.252,6.156-27.402,9.439c3.42-6.707,4.851-14.415,3.955-22.006c-1.633-13.733-10.794-25.73-25.269-27.573
		c-15.117-1.921-32.402,10.842-25.293,27.572c5.911,13.536,30.578,8.452,22.72-4.875c-4.466,0.607-9.314,12.358-13.728,2.68
		c-4.239-9.451,7.195-14.844,14.753-13.747c21.301,3.1,18.152,28.586,8.022,43.307c-25.046,9.283-50.254,19.58-74.946,31.076
		c2.637-6.137,3.66-12.921,2.864-19.704c-1.636-13.734-10.788-25.73-25.268-27.572c-15.117-1.92-32.405,10.842-25.293,27.572
		c5.913,13.536,30.613,8.48,22.715-4.878c-4.458,0.609-9.309,12.361-13.655,2.68c-4.309-9.451,7.124-14.842,14.688-13.751
		c21.23,3.109,18.184,28.489,8.086,43.24c-25.198,12.393-49.736,26.176-73.101,41.498c1.631-5.964,1.833-12.278,0.452-18.366
		c-3.042-13.544-13.161-25.066-27.761-25.792c-15.139-0.771-31.433,12.392-24.638,28.827c6.755,16.272,34.092,6.061,23.042-6.068
		c-6.121,2.191-4.314,12.51-12.957,5.216c-7.346-9.606,7.212-17.107,14.968-16.154c19.419,2.468,20.452,26.172,13.252,41.521
		c-20.244,14.127-39.389,29.525-57.095,46.391c-0.105-6.203-1.716-12.383-4.763-17.865c-6.734-12.152-19.661-20.369-33.896-16.924
		c-14.739,3.564-26.629,20.81-15.518,34.621c11.079,13.71,34.429-3.769,20.444-12.311c-3.643,2.666-2.419,15.303-10.83,8.807
		c-8.164-6.334-0.659-16.466,6.533-19.033c19.627-7.085,29.046,15.288,27.622,32.949c-16.199,16.501-31.006,34.297-44.033,53.611
		c-1.57-6.714-4.978-12.927-9.817-17.874c-10.076-10.308-25.483-14.644-38.438-6.632c-13.508,8.335-18.96,30.907-1.226,38.632
		c13.435,5.696,28.101-14.829,13.13-19.151c-2.8,3.516,1.704,15.415-8.1,11.336c-9.592-3.953-5.044-15.658,1.228-20.042
		c17.442-12.306,32.715,7.894,35.579,25.558c-12.393,20.103-22.234,41.588-29.514,63.821c-2.261-5.272-5.713-9.966-10.073-13.746
		c-10.943-9.431-26.643-12.479-38.88-3.348c-12.756,9.49-16.238,32.389,2.041,38.607c13.899,4.501,26.77-17.17,11.477-20.229
		c-2.493,3.737,3.037,15.231-7.063,12.04c-9.902-3.136-6.35-15.24-0.498-20.155c16.802-14.126,34.272,6.289,37.947,24.056
		c-4.526,17.578-7.451,35.532-8.589,53.585c-2.236-2.073-4.666-3.866-7.351-5.32c-12.676-6.937-28.655-6.599-38.706,4.878
		c-10.471,11.933-9.119,35.087,10.09,37.29c14.524,1.508,22.519-22.409,6.948-22.149c-2.368,5.99,6.543,11.653-4.624,13.189
		c-12.041-0.823-8.093-16.725-2.251-21.903c12.107-10.677,26.821-2.434,35.403,9.549c-0.163,33.768,5.911,67.606,19.136,99.681
		c34.88-56.642,70.688-114.697,121.711-158.391C1402.695,565.28,1472.327,537.274,1539.558,510.802z M1362.818,556.915
		c-35.757-16.113-93.418,32.22-76.575,70.706c-32.136,1.018-57.329,27.709-59.495,59.493c-0.916,13.26,3.384,26.08,11.697,36.318
		c-3.245,5.052-6.462,10.131-9.639,15.243c-26.233-96.648,9.968-195.665,77.302-266.355
		c98.049-102.922,239.57-150.929,372.798-189.081c43.542-12.482,86.411-26.688,124.878-51.09
		c51.873-32.895,122.724-117.61,137.117-136.43c1.802,6.609-0.574,14.625-1.367,21.657c-29.607,6.504-33.945,47.562-13.53,56.74
		c-25.467,7.673-59.431,57.024-33.469,82.387c-32.681-2.344-57.075,30.807-43.723,62.673c-32.593-6.549-66.253,18.341-65.796,52.489
		c-34.749-18.883-68.067,3.531-73.272,40.625c-31.946-27.722-81.208-1.769-95.781,32.886c-30.137-23.58-82.171,0.661-91.621,35.184
		c-30.825-29.352-79.905,0.678-85.322,38.423C1408.743,490.949,1358.762,518.652,1362.818,556.915z"/>
	<path style="fill:#603913;" d="M1867.847,222.033c-4.778,5.148-12.818,5.449-17.964,0.68c-5.146-4.77-5.459-12.814-0.686-17.966
		c4.771-5.146,12.81-5.454,17.962-0.678C1872.307,208.839,1872.615,216.882,1867.847,222.033z"/>
	<path style="fill:#603913;" d="M1834.704,267.136c-4.768,5.15-12.813,5.452-17.959,0.681c-5.149-4.772-5.457-12.814-0.686-17.963
		c4.771-5.15,12.813-5.452,17.959-0.682C1839.165,253.945,1839.483,261.99,1834.704,267.136z"/>
	<path style="fill:#603913;" d="M1791.079,302.522c-4.771,5.145-12.815,5.452-17.964,0.681c-5.146-4.772-5.457-12.814-0.684-17.964
		c4.773-5.146,12.817-5.452,17.964-0.682C1795.545,289.331,1795.849,297.372,1791.079,302.522z"/>
	<path style="fill:#603913;" d="M1740.205,324.694c-4.771,5.148-12.817,5.453-17.964,0.679c-5.149-4.771-5.459-12.815-0.686-17.964
		c4.773-5.147,12.817-5.452,17.964-0.681C1744.666,311.499,1744.975,319.548,1740.205,324.694z"/>
	<path style="fill:#603913;" d="M1682.683,349.363c-4.775,5.15-12.817,5.454-17.966,0.681c-5.149-4.767-5.456-12.814-0.683-17.96
		c4.773-5.15,12.815-5.452,17.964-0.685C1687.149,336.174,1687.453,344.216,1682.683,349.363z"/>
	<path style="fill:#603913;" d="M1618.418,374.292c-4.773,5.148-12.815,5.452-17.964,0.68c-5.146-4.773-5.457-12.817-0.683-17.965
		c4.773-5.147,12.815-5.452,17.964-0.679C1622.883,361.1,1623.191,369.143,1618.418,374.292z"/>
	<path style="fill:#603913;" d="M1561.892,395.554c-4.771,5.147-12.817,5.452-17.964,0.68c-5.151-4.776-5.454-12.815-0.686-17.964
		c4.773-5.148,12.817-5.454,17.964-0.682C1566.355,382.361,1566.66,390.404,1561.892,395.554z"/>
	<path style="fill:#603913;" d="M1496.465,419.398c-4.773,5.15-12.815,5.453-17.964,0.68c-5.146-4.774-5.459-12.813-0.683-17.964
		c4.771-5.147,12.815-5.451,17.964-0.679C1500.925,406.205,1501.238,414.252,1496.465,419.398z"/>
	<path style="fill:#603913;" d="M1437.942,447.482c-4.768,5.148-12.815,5.452-17.964,0.679c-5.144-4.77-5.452-12.814-0.681-17.962
		c4.773-5.146,12.813-5.449,17.961-0.68C1442.407,434.292,1442.715,442.337,1437.942,447.482z"/>
	<path style="fill:#603913;" d="M1382.92,478.806c-4.771,5.146-12.815,5.447-17.964,0.678c-5.147-4.771-5.457-12.815-0.684-17.964
		c4.771-5.146,12.815-5.452,17.962-0.681C1387.385,465.612,1387.693,473.654,1382.92,478.806z"/>
	<path style="fill:#603913;" d="M1328.408,523.596c-4.771,5.148-12.815,5.453-17.964,0.681c-5.146-4.772-5.452-12.813-0.679-17.96
		c4.768-5.148,12.815-5.454,17.964-0.684C1332.876,510.405,1333.181,518.45,1328.408,523.596z"/>
	<path style="fill:#603913;" d="M1278.73,577.202c-4.773,5.149-12.815,5.451-17.964,0.682c-5.149-4.773-5.456-12.815-0.688-17.965
		c4.773-5.146,12.82-5.452,17.964-0.681C1283.193,564.011,1283.504,572.055,1278.73,577.202z"/>
	<path style="fill:#603913;" d="M1783.421,764.95c14.096-15.205,12.517-43.443-3.25-58.057c-2.554-2.365-5.391-4.341-8.521-5.878
		c0.061-0.138,0.161-0.242,0.222-0.383c3.501-6.435,12.795-23.557-10.447-45.099c-14.372-13.318-39.011-26.208-73.34-38.396
		c-41.162-14.556-78.13-22.635-113.013-24.606c-42.522-2.433-89.719,4.017-133.408,16.532
		c-49.497,14.178-92.693,42.211-122.788,70.603c44.893-50.192,104.653-74.737,155.432-85.839
		c53.855-11.763,98.972-19.987,148.155-9.308c46.792,10.16,83.708,28.39,126.404,49.498l4.331,2.13
		c21.724,10.707,67.016,12.465,81.809-5.67c5.061-6.229,8.291-17.08-2.991-34.494c39.25,11.425,61.619,1.873,69.544-11.516
		c6.721-11.251,3.66-25.331-7.669-35.829c-6.777-6.281-19.35-13.971-41.169-15.668c1.226-6.795,3.662-24.159-11.121-37.862
		c-18.386-17.041-56.548-21.866-113.393-14.241c-60.342,8.022-105.728,16.327-147.112,26.84
		c-53.452,13.567-99.116,30.579-139.524,51.945c-51.514,27.255-91.789,57.183-123.276,91.437
		c-33.193,36.168-59.549,80.174-80.735,115.519l3.877,2.752l6.321,6.324l12.046-13.872c3.845-5.402,39.49-53.472,98.474-84.656
		c64.509-34.05,129.678-33.965,193.679,0.198c6.948,3.71,20.515,15.442,36.145,29.017c38.747,33.635,91.763,79.717,117.539,69.161
		c7.466-3.089,12.178-10.619,13.919-22.39C1757.51,786.952,1777.976,770.824,1783.421,764.95z M1728.828,485.599
		c12.644-1.724,24.275-2.777,34.953-3.215l-0.164,0.176c0.315,0.354,31.682,36.64,27.793,79.957
		c-2.249,25.081-15.825,47.715-40.313,67.267l-0.098-0.027c-16.223-8.018-32.075-15.819-48.167-23.002
		c32.339-47.296,13.369-105.362,8.342-118.729C1716.941,487.201,1722.749,486.403,1728.828,485.599z M1647.549,498.203
		c4.478,7.852,24.861,48.128-3.24,86.936c-6.787-1.934-13.706-3.728-20.849-5.281c-5.6-1.161-11.142-2.135-16.662-2.906
		c21.941-29.568,9.763-61.651,5.034-71.56C1623.235,502.902,1635.088,500.497,1647.549,498.203z M1560.576,518.134
		c2.952,7.541,11.008,33.142-3.123,57.286c-22.571,1.499-45.422,5.538-69.948,10.689c13.567-20.313,7.358-38.223,4.343-44.588
		C1513.205,532.849,1536.052,525.101,1560.576,518.134z M1502.214,652.832c-11.611-2.892-23.184-4.786-34.81-5.55
		c7.297-4.937,12.024-11.083,14.038-18.31c2.881-10.268-0.381-19.854-2.334-24.259c17.068-3.489,34.348-5.796,51.37-6.984
		C1531.304,604.346,1531.064,625.567,1502.214,652.832z M1572.934,687.117c-7.876-6.652-14.309-11.637-18.713-13.963
		c-1.997-1.068-3.984-2.008-5.984-3.01c44.58-29.524,44.165-60.908,42.485-71.496c13.477,1.44,27.395,3.812,41.753,7.11
		C1632.837,613.502,1632.842,662.443,1572.934,687.117z M1641.758,744.533c-11.245-8.407-22.627-17.789-33.22-26.83
		c71.98-30.831,78.542-81.741,78.926-95.686c13.335,4.757,25.125,9.639,35.432,14.574
		C1722.417,645.447,1716.333,708.953,1641.758,744.533z"/>
	<g>
		<path style="fill:#603913;" d="M1712.309,504.898c-0.447-0.41-0.735-1.001-0.754-1.653c-0.032-1.288,0.986-2.351,2.273-2.383
			l65.151-1.51c1.277-0.033,2.354,0.985,2.395,2.278c0.032,1.283-0.984,2.352-2.271,2.383l-65.154,1.506
			C1713.323,505.535,1712.739,505.297,1712.309,504.898z"/>
		<path style="fill:#603913;" d="M1715.495,522.476c-0.483-0.445-0.769-1.09-0.735-1.799c0.051-1.292,1.14-2.299,2.429-2.261
			l70.772,2.401c1.292,0.049,2.29,1.125,2.234,2.411c-0.051,1.296-1.145,2.298-2.429,2.262l-70.771-2.395
			C1716.418,523.076,1715.891,522.839,1715.495,522.476z"/>
		<path style="fill:#603913;" d="M1717.962,541.818c-0.528-0.49-0.835-1.217-0.755-1.997c0.137-1.31,1.311-2.256,2.62-2.122
			l74.075,7.725c1.304,0.135,2.261,1.305,2.122,2.617c-0.139,1.31-1.311,2.256-2.62,2.124l-74.07-7.726
			C1718.799,542.382,1718.323,542.153,1717.962,541.818z"/>
		<path style="fill:#603913;" d="M1716.983,560.405c-0.564-0.519-0.869-1.305-0.74-2.116c0.203-1.304,1.423-2.19,2.724-1.986
			l73.797,11.533c1.294,0.198,2.19,1.41,1.99,2.721c-0.205,1.299-1.428,2.184-2.727,1.983l-73.794-11.53
			C1717.746,560.938,1717.317,560.718,1716.983,560.405z"/>
		<path style="fill:#603913;" d="M1713.003,577.843c-0.603-0.557-0.901-1.412-0.703-2.273c0.288-1.284,1.56-2.091,2.852-1.799
			l70.586,15.864c1.275,0.289,2.09,1.56,1.802,2.852c-0.288,1.284-1.563,2.092-2.854,1.799l-70.584-15.869
			C1713.672,578.323,1713.306,578.12,1713.003,577.843z"/>
		<path style="fill:#603913;" d="M1706.846,593.255c-0.662-0.613-0.94-1.57-0.65-2.485c0.401-1.25,1.743-1.936,3-1.531
			l63.169,20.365c1.247,0.404,1.938,1.741,1.536,2.999c-0.4,1.256-1.748,1.94-2.996,1.536l-63.174-20.365
			C1707.392,593.663,1707.095,593.484,1706.846,593.255z"/>
		<path style="fill:#603913;" d="M1683.706,627.86c-0.728-0.674-0.982-1.754-0.559-2.707c0.53-1.21,1.938-1.752,3.142-1.22
			l38.594,17.084c1.201,0.54,1.746,1.936,1.211,3.143c-0.527,1.206-1.934,1.751-3.142,1.216l-38.591-17.082
			C1684.114,628.181,1683.894,628.035,1683.706,627.86z"/>
		<path style="fill:#603913;" d="M1680.852,641.461c-0.745-0.685-0.989-1.798-0.542-2.764c0.557-1.194,1.982-1.699,3.171-1.143
			l39.065,18.331c1.213,0.569,1.697,1.972,1.142,3.171c-0.559,1.192-1.977,1.702-3.169,1.144l-39.065-18.332
			C1681.228,641.763,1681.028,641.625,1680.852,641.461z"/>
		<path style="fill:#603913;" d="M1676.543,655.341c-0.755-0.698-0.957-1.867-0.415-2.836c0.639-1.149,2.068-1.591,3.196-0.991
			l37.263,19.918c1.128,0.601,1.518,2.024,0.881,3.167c-0.637,1.151-2.065,1.593-3.196,0.99l-37.266-19.918
			C1676.839,655.585,1676.677,655.464,1676.543,655.341z"/>
		<path style="fill:#603913;" d="M1668.057,671.033c-0.825-0.762-1.018-2.036-0.391-3.015c0.703-1.117,2.173-1.448,3.293-0.74
			l35.849,22.665c1.101,0.684,1.446,2.177,0.738,3.289c-0.701,1.111-2.173,1.445-3.291,0.741l-35.852-22.671
			C1668.281,671.229,1668.164,671.135,1668.057,671.033z"/>
		<path style="fill:#603913;" d="M1657.644,682.505c-0.877-0.812-0.996-2.186-0.239-3.172c0.803-1.045,2.285-1.251,3.318-0.465
			l35.083,26.832c1.06,0.808,1.206,2.261,0.41,3.314c-0.801,1.044-2.285,1.249-3.32,0.46l-35.085-26.827
			C1657.751,682.601,1657.698,682.557,1657.644,682.505z"/>
		<path style="fill:#603913;" d="M1646.316,693.94c-0.906-0.839-0.991-2.264-0.174-3.242c0.842-1.013,2.334-1.157,3.321-0.333
			l34.267,28.505c0.986,0.842,1.12,2.322,0.269,3.328c-0.842,1.006-2.334,1.155-3.325,0.331l-34.26-28.502
			C1646.382,693.999,1646.348,693.967,1646.316,693.94z"/>
		<path style="fill:#603913;" d="M1630.737,705.498c-0.898-0.834-0.971-2.251-0.156-3.229c0.84-1.013,2.324-1.168,3.306-0.35
			l34.285,28.524c1.008,0.836,1.096,2.304,0.249,3.308c-0.842,1.012-2.324,1.162-3.308,0.35l-34.287-28.525
			C1630.796,705.548,1630.769,705.526,1630.737,705.498z"/>
		<path style="fill:#603913;" d="M1615.705,713.499c-0.913-0.847-1.023-2.266-0.227-3.247c0.825-1.024,2.329-1.178,3.35-0.351
			l34.804,28.188c0.991,0.87,1.179,2.333,0.344,3.353c-0.828,1.022-2.324,1.179-3.347,0.354l-34.805-28.189
			C1615.786,713.567,1615.745,713.531,1615.705,713.499z"/>
		<path style="fill:#603913;" d="M1588.443,606.182c-0.574-0.53-0.876-1.334-0.725-2.158c0.225-1.298,1.463-2.159,2.756-1.935
			l43.293,7.628c1.292,0.231,2.166,1.465,1.934,2.761c-0.225,1.299-1.465,2.167-2.756,1.936l-43.296-7.632
			C1589.18,606.698,1588.774,606.486,1588.443,606.182z"/>
		<path style="fill:#603913;" d="M1587.178,617.196c-0.598-0.553-0.896-1.4-0.715-2.25c0.278-1.287,1.541-2.112,2.834-1.826
			l43.357,9.311c1.284,0.271,2.109,1.544,1.826,2.832c-0.268,1.286-1.543,2.107-2.822,1.83l-43.367-9.319
			C1587.861,617.684,1587.478,617.477,1587.178,617.196z"/>
		<path style="fill:#603913;" d="M1585,626.554c-0.657-0.61-0.94-1.561-0.65-2.472c0.398-1.257,1.736-1.948,2.993-1.548
			l41.394,13.182c1.255,0.408,1.946,1.734,1.548,2.992c-0.395,1.258-1.736,1.952-2.988,1.55l-41.399-13.183
			C1585.554,626.965,1585.251,626.782,1585,626.554z"/>
		<path style="fill:#603913;" d="M1579.148,639c-0.723-0.667-0.976-1.736-0.564-2.689c0.522-1.21,1.924-1.764,3.13-1.245
			l37.722,16.277c1.204,0.515,1.763,1.912,1.247,3.131c-0.527,1.206-1.928,1.763-3.14,1.241l-37.715-16.272
			C1579.565,639.328,1579.346,639.182,1579.148,639z"/>
		<path style="fill:#603913;" d="M1569.868,649.894c-0.771-0.714-1.009-1.885-0.488-2.855c0.61-1.169,2.051-1.619,3.22-1
			l36.563,19.265c1.179,0.632,1.614,2.058,0.999,3.22c-0.611,1.167-2.053,1.616-3.22,0.997l-36.565-19.265
			C1570.183,650.153,1570.022,650.036,1569.868,649.894z"/>
		<path style="fill:#603913;" d="M1562.136,657.352c-0.845-0.784-1.021-2.084-0.359-3.072c0.735-1.089,2.217-1.382,3.311-0.65
			l31.579,21.146c1.082,0.686,1.389,2.206,0.654,3.3c-0.735,1.096-2.212,1.392-3.306,0.653l-31.584-21.145
			C1562.327,657.516,1562.229,657.438,1562.136,657.352z"/>
		<path style="fill:#603913;" d="M1554.409,664.815c-0.85-0.789-1.021-2.101-0.347-3.091c0.745-1.082,2.224-1.365,3.311-0.625
			l29.863,20.366c1.067,0.763,1.37,2.222,0.627,3.312c-0.74,1.085-2.224,1.367-3.313,0.624l-29.861-20.363
			C1554.59,664.964,1554.5,664.9,1554.409,664.815z"/>
		<path style="fill:#603913;" d="M1610.186,512.609c-0.386-0.358-0.654-0.839-0.742-1.399c-0.195-1.302,0.708-2.515,2.01-2.706
			l41.494-6.222c1.306-0.189,2.522,0.718,2.715,2.008c0.193,1.301-0.705,2.511-2.007,2.712l-41.501,6.216
			C1611.411,513.324,1610.693,513.08,1610.186,512.609z"/>
		<path style="fill:#603913;" d="M1613.625,525.547c-0.396-0.37-0.672-0.873-0.74-1.446c-0.169-1.306,0.755-2.501,2.058-2.669
			l42.378-5.403c1.309-0.167,2.507,0.758,2.664,2.063c0.166,1.306-0.759,2.497-2.061,2.667l-42.38,5.402
			C1614.817,526.251,1614.121,526.007,1613.625,525.547z"/>
		<path style="fill:#603913;" d="M1616.128,535.988c-0.447-0.416-0.735-0.995-0.762-1.655c-0.047-1.317,0.976-2.423,2.29-2.472
			l42.944-1.632c1.316-0.049,2.422,0.977,2.473,2.292c0.049,1.314-0.977,2.422-2.29,2.472l-42.942,1.63
			C1617.18,536.647,1616.577,536.403,1616.128,535.988z"/>
		<path style="fill:#603913;" d="M1614.99,550.369c-0.469-0.436-0.762-1.059-0.764-1.752c0.003-1.317,1.074-2.378,2.385-2.382
			l43.008,0.055c1.321,0.005,2.385,1.076,2.38,2.385c0,1.315-1.072,2.378-2.385,2.38l-43.008-0.052
			C1615.981,551.001,1615.417,550.762,1614.99,550.369z"/>
		<path style="fill:#603913;" d="M1610.823,562.752c-0.52-0.481-0.818-1.184-0.752-1.944c0.11-1.311,1.258-2.285,2.568-2.181
			l45.256,3.764c1.308,0.109,2.283,1.261,2.175,2.571c-0.107,1.313-1.257,2.284-2.568,2.18l-45.259-3.763
			C1611.694,563.33,1611.203,563.102,1610.823,562.752z"/>
		<path style="fill:#603913;" d="M1607.314,571.685c-0.554-0.513-0.845-1.31-0.688-2.114c0.234-1.271,1.453-2.109,2.717-1.881
			l42.559,7.562c1.255,0.205,2.083,1.422,1.843,2.691c-0.234,1.269-1.45,2.112-2.712,1.883l-42.566-7.571
			C1608.017,572.178,1607.627,571.975,1607.314,571.685z"/>
		<path style="fill:#603913;" d="M1489.382,547.412c-0.295-0.276-0.53-0.628-0.661-1.036c-0.396-1.247,0.283-2.567,1.526-2.939
			l73.284-22.104c1.25-0.37,2.578,0.342,2.974,1.582c0.398,1.248-0.279,2.566-1.524,2.94l-73.284,22.104
			C1490.857,548.206,1489.99,547.971,1489.382,547.412z"/>
		<path style="fill:#603913;" d="M1493.535,556.951c-0.313-0.292-0.554-0.664-0.681-1.1c-0.379-1.247,0.322-2.51,1.555-2.82
			l72.251-18.362c1.238-0.319,2.544,0.443,2.907,1.687c0.376,1.244-0.322,2.512-1.552,2.826l-72.258,18.356
			C1494.949,557.743,1494.119,557.489,1493.535,556.951z"/>
		<path style="fill:#603913;" d="M1491.76,569.386c-0.329-0.304-0.576-0.713-0.693-1.184c-0.31-1.273,0.471-2.563,1.75-2.877
			l73.518-17.973c1.274-0.32,2.568,0.466,2.878,1.746c0.315,1.279-0.464,2.572-1.748,2.881l-73.518,17.971
			C1493.14,570.148,1492.327,569.912,1491.76,569.386z"/>
		<path style="fill:#603913;" d="M1488.779,579.617c-0.366-0.338-0.627-0.791-0.723-1.315c-0.244-1.294,0.61-2.539,1.907-2.778
			l74.516-13.797c1.306-0.239,2.544,0.62,2.781,1.915c0.239,1.293-0.61,2.537-1.909,2.777l-74.521,13.796
			C1490.063,580.357,1489.312,580.11,1488.779,579.617z"/>
		<path style="fill:#603913;" d="M1477.703,609.967c-0.406-0.372-0.684-0.889-0.747-1.482c-0.146-1.308,0.801-2.489,2.107-2.629
			l52.483-5.791c1.303-0.139,2.485,0.798,2.629,2.108c0.144,1.311-0.803,2.483-2.107,2.633l-52.483,5.786
			C1478.872,610.67,1478.193,610.424,1477.703,609.967z"/>
		<path style="fill:#603913;" d="M1478.958,620.883c-0.415-0.391-0.698-0.924-0.747-1.538c-0.122-1.31,0.852-2.467,2.163-2.584
			l50.42-4.442c1.318-0.113,2.471,0.864,2.586,2.163c0.117,1.31-0.852,2.468-2.161,2.586l-50.425,4.443
			C1480.095,621.577,1479.433,621.323,1478.958,620.883z"/>
		<path style="fill:#603913;" d="M1477.63,630.211c-0.447-0.413-0.73-0.997-0.757-1.655c-0.058-1.321,0.972-2.427,2.29-2.472
			l46.309-1.761c1.313-0.052,2.422,0.975,2.471,2.289c0.051,1.316-0.974,2.421-2.29,2.474l-46.309,1.761
			C1478.684,630.869,1478.078,630.626,1477.63,630.211z"/>
		<path style="fill:#603913;" d="M1473.303,638.384c-0.484-0.448-0.779-1.084-0.762-1.793c0.027-1.315,1.111-2.365,2.432-2.334
			l43.879,0.862c1.309,0.025,2.359,1.109,2.332,2.428c-0.029,1.312-1.111,2.363-2.424,2.341l-43.884-0.862
			C1474.27,639.009,1473.718,638.771,1473.303,638.384z"/>
		<path style="fill:#603913;" d="M1467.729,645.403c-0.522-0.484-0.813-1.221-0.698-1.997c0.181-1.288,1.37-2.218,2.647-2.079
			l40.637,4.353c1.27,0.129,2.175,1.292,1.987,2.581c-0.181,1.288-1.367,2.222-2.646,2.083l-40.64-4.355
			C1468.518,645.93,1468.069,645.719,1467.729,645.403z"/>
	</g>
	<path style="fill:#603913;" d="M1239.495,767.982c49.517-56.791,137.61-100.641,213.088-99.126
		c74.917,1.499,151.833,51.39,162.908,129.779c8.167,57.81-30.857,125.334-97.476,112.218
		c-29.922-5.891-57.021-35.674-37.815-66.437c4.868-7.61,12.727-12.841,21.99-12.908c9.258-0.068,21.89,6.615,17.969,18.041
		c-2.681,7.831-7.439-4.314-10.239-5.169c-5.552-1.698-11.121,3.23-12.461,8.233c-5.186,9.281,5.213,19.871,12.302,23.302
		c23.008,7.264,47.21-3.844,58.152-24.826c13.65-26.177,9.102-60.117-6.853-85.875c-21.999-35.499-60.84-56.648-101.494-62.336
		c-38.242-5.349-77.754,0.815-114.272,12.544c-18.154,5.833-35.786,13.276-52.63,22.2c-9.177,4.865-38.359,25.17-47.241,35.623
		C1242.759,769.694,1239.495,767.982,1239.495,767.982z"/>
	<path style="fill:#603913;" d="M1717.637,1058.745c0.491-7.253,6.726-47.62,8.823-60.597c2.825-17.412,2.947-33.05-6.297-50.322
		c27.564,7.268,57.173-0.333,84.827-5.343c7.466,0.01,11.863-6.431,9.441-10.692c-12.371-21.774-23.962-40.586-33.074-62.994
		c-7.7-18.931-17.779-36.159-31.079-51.663c-28.857-33.64-65.383-29.719-104.692-23.805c-5.628,0.844-7.571,6.737-6.023,10.707
		c-8.953,31.039-10.522,60.111-32.424,86.627c-22.259,26.959-62.48,38.868-104.46,27.209
		c-14.966,10.872-31.672,31.538-36.973,47.102c-6.347,18.66-6.677,37.133-3.484,56.49c2.886,17.473,9.978,33.801,18.889,48.965
		c11.726,19.951,35.466,36.44,37.505,60.92c0.007,0.161,0.061,0.303,0.08,0.459c-2.126,6.963,9.019,11.992,13.491,4.805
		c15.117-24.263,45.994-36.96,61.731-61.931c9.233-14.636,13.616-29.849,15.994-46.15c23.428,23.335,61.56,29.621,93.02,36.902
		C1710.398,1075.015,1717.783,1069.675,1717.637,1058.745z M1653.835,806.388c14.624-2.4,29.314-5.738,44.111-3.635
		c46.624,6.617,68.662,65.222,79.165,119.63c-86.355,35.323-99.678-15.258-134.924-56.724
		C1649.392,845.451,1653.835,829.257,1653.835,806.388z M1568.747,1067.542c-11.716,12.283-26.218,21.619-37.803,33.684
		c-7.832-22.37-28.174-39.739-40.054-59.951c-11.26-19.163-16.823-26.079-16.504-48.058c0.369-24.823,16.262-41.12,31.23-58.541
		c20.833,8.821,43.679,6.974,64.468-1.058c6.858,15.77,7.913,33.213,12.024,49.78c2.749,11.086,8.374,21.258,15.205,30.465
		C1595.015,1041.826,1588.425,1046.933,1568.747,1067.542z M1617.769,1016.214c-28.174-20.8-22.451-58.802-34.79-88.466
		c23.604-10.687,39.834-27.326,50.281-49.895c17.239,24.53,39.048,47.656,65.75,61.53c11.885,37.799,3.801,74.49-6.474,95.298
		C1662.698,1034.37,1638.633,1031.621,1617.769,1016.214z"/>
	<g>
		<path style="fill:#603913;" d="M1646.441,833.37c38.088,21.599,79.753,44.038,111.567,74.562
			c-34.599-26.736-78.052-44.466-117.898-61.748C1642.222,841.913,1644.328,837.642,1646.441,833.37
			C1666.018,844.474,1646.441,833.37,1646.441,833.37z"/>
		<path style="fill:#603913;" d="M1648.711,816.024c22.556,4.281,46.387,10.211,66.572,21.442
			c-21.501-6.664-45.386-7.635-67.744-7.186C1647.927,825.524,1648.32,820.775,1648.711,816.024
			C1654.639,817.152,1648.711,816.024,1648.711,816.024z"/>
		<path style="fill:#603913;" d="M1643.484,848.242c17.09,13.865,34.531,27.712,50.234,43.158
			c-18.54-11.631-38.425-21.336-57.983-31.139C1638.318,856.255,1640.901,852.254,1643.484,848.242
			C1652.085,855.224,1643.484,848.242,1643.484,848.242z"/>
		<path style="fill:#603913;" d="M1612.847,901.964c22.976,36.802,45.874,73.885,66.147,112.267
			c-24.29-35.814-51.033-70.059-77.827-104.023C1605.056,907.456,1608.95,904.707,1612.847,901.964
			C1624.373,920.424,1612.847,901.964,1612.847,901.964z"/>
		<path style="fill:#603913;" d="M1624.016,889.376c14.812,19.404,29.622,38.813,44.436,58.221
			c-18.301-16.162-36.602-32.316-54.902-48.473C1617.041,895.875,1620.527,892.632,1624.016,889.376L1624.016,889.376z"/>
		<path style="fill:#603913;" d="M1600.139,912.93c5.12,20.377,10.234,40.754,15.354,61.129
			c-9.578-18.699-19.158-37.388-28.735-56.088C1591.218,916.292,1595.679,914.611,1600.139,912.93L1600.139,912.93z"/>
		<path style="fill:#603913;" d="M1547.759,934.049c-3.218,40.879-6.438,81.757-9.653,122.635
			c-1.55-40.979-3.1-81.952-4.646-122.928C1538.223,933.854,1542.995,933.956,1547.759,934.049L1547.759,934.049z"/>
		<path style="fill:#603913;" d="M1526.741,934.657c-8.318,19.824-18.225,41.746-20.379,63.362
			c-2.517-21.987,2.671-45.989,6.694-67.514C1517.62,931.888,1522.18,933.271,1526.741,934.657
			C1522.483,944.806,1526.741,934.657,1526.741,934.657z"/>
		<path style="fill:#603913;" d="M1564.028,930.828c2.185,27.347,4.38,54.696,6.56,82.039
			c-6.887-26.557-13.775-53.112-20.657-79.666C1554.626,932.409,1559.328,931.62,1564.028,930.828L1564.028,930.828z"/>
	</g>
	<path style="fill:#603913;" d="M450.431,1480.276c-122.21,51.684-258.925,89.119-341.164,201.267
		c-44.789,61.099-78.456,166.973-59.108,261.187c4.598,22.339,30.821,40.005,54.514,34.9c21.322-4.575,39.966-30.339,24.461-50.298
		c-6.842-8.828-19.819-13.279-29.234-5.767c-7.5,5.977-9.624,19.417,1.293,23.391c4.849-5.706-5.22-8.926,1.06-15.466
		c4.342-4.497,10.61-3.738,15.149-0.176c15.247,12.044,1.312,32.17-13.319,36.226c-17.331,4.802-34.79-8.11-42.605-22.815
		c-1.994-3.792-3.454-7.756-4.656-11.799c18.739-25.857,38.147-51.768,59.281-76.091c0.067,3.301,0.479,6.584,1.355,9.768
		c3.74,13.342,14.628,23.777,29.192,23.396c15.273-0.452,30.35-15.752,20.774-31.194c-7.973-12.427-31.535-3.652-21.697,8.388
		c6.199-1.911,5.034-12.334,13.218-4.612c6.841,9.978-8.065,16.782-15.75,15.408c-16.77-2.966-18.83-21.301-13.836-35.903
		c16.039-17.253,33.12-33.452,51.628-47.959c-1.029,4.624-1.337,9.441-0.625,14.19c1.969,13.691,11.426,25.454,25.902,26.97
		c15.155,1.552,32.159-11.672,24.634-28.223c-6.275-13.347-30.814-7.722-22.588,5.44c4.448-0.716,9.003-12.588,13.594-3.015
		c4.505,9.378-6.759,15.012-14.348,14.109c-20.624-2.488-19.045-26.328-10.137-41.484c6.992-4.817,14.126-9.458,21.599-13.74
		c14.141-8.188,28.827-15.183,43.902-21.406c-3.279,6.826-4.489,14.534-3.402,22.102c1.967,13.684,11.389,25.491,25.907,26.973
		c15.156,1.548,32.124-11.643,24.602-28.193c-6.242-13.389-30.743-7.727-22.589,5.442c4.475-0.754,9.073-12.593,13.655-3.02
		c4.471,9.348-6.823,15.017-14.378,14.077c-21.405-2.542-18.861-28.201-9.096-43.162c22.467-8.476,45.523-15.596,68.548-22.612
		c-4.823,7.563-6.782,16.773-5.5,25.771c2.009,13.721,11.423,25.457,25.938,26.941c15.192,1.574,32.126-11.643,24.64-28.155
		c-6.282-13.423-30.809-7.724-22.589,5.432c4.448-0.718,9.003-12.59,13.617-3.049c4.508,9.377-6.784,15.044-14.371,14.146
		c-22.564-2.744-18.538-31.091-7.424-45.498c15.437-4.822,30.836-9.673,45.924-15.115c9.022-3.23,18.094-6.604,27.164-10.12
		c-3.256,6.802-4.491,14.536-3.411,22.102c1.979,13.684,11.428,25.461,25.944,26.943c15.155,1.545,32.124-11.646,24.602-28.191
		c-6.24-13.389-30.776-7.698-22.593,5.437c4.452-0.718,9.008-12.588,13.659-3.017c4.473,9.343-6.825,15.012-14.408,14.106
		c-21.373-2.576-18.853-28.127-9.088-43.093c24.8-9.9,49.746-20.823,74.144-32.927c-2.478,6.201-3.336,13.013-2.373,19.778
		c1.98,13.679,11.431,25.452,25.948,26.936c15.155,1.538,32.124-11.646,24.601-28.193c-6.242-13.386-30.814-7.717-22.59,5.439
		c4.45-0.72,9.004-12.59,13.589-3.015c4.54,9.341-6.755,15.005-14.342,14.104c-21.303-2.576-18.889-28.022-9.154-43.017
		c24.878-13.018,49.07-27.4,72.046-43.298c-1.478,6.001-1.521,12.317,0.007,18.364c3.375,13.462,13.774,24.734,28.392,25.1
		c15.15,0.403,31.115-13.164,23.914-29.431c-7.161-16.099-34.232-5.207-22.881,6.638c6.066-2.337,4.005-12.608,12.821-5.53
		c7.584,9.417-6.787,17.275-14.563,16.519c-19.472-1.983-21.096-25.657-14.269-41.184c19.878-14.619,38.64-30.49,55.918-47.791
		c0.26,6.201,2.028,12.339,5.195,17.742c7.042,11.987,20.172,19.875,34.318,16.087c14.645-3.936,26.107-21.47,14.652-35
		c-11.412-13.435-34.319,4.619-20.132,12.817c3.576-2.761,2.037-15.359,10.61-9.084c8.318,6.138,1.063,16.453-6.061,19.199
		c-19.443,7.571-29.411-14.565-28.431-32.256c15.783-16.897,30.145-35.051,42.69-54.688c1.733,6.68,5.3,12.8,10.261,17.627
		c10.32,10.056,25.841,14.006,38.583,5.679c13.307-8.669,18.193-31.37,0.276-38.652c-13.574-5.361-27.727,15.518-12.658,19.468
		c2.715-3.579-2.078-15.368,7.82-11.528c9.686,3.714,5.433,15.523-0.73,20.068c-17.136,12.727-32.898-7.085-36.203-24.67
		c11.891-20.408,21.202-42.129,27.933-64.536c2.384,5.215,5.948,9.824,10.401,13.494c11.181,9.155,26.947,11.811,38.955,2.38
		c12.514-9.8,15.43-32.778-3-38.547c-14.013-4.151-26.336,17.834-10.969,20.513c2.395-3.801-3.411-15.147,6.765-12.212
		c9.974,2.886,6.716,15.08,0.991,20.134c-16.439,14.541-34.414-5.437-38.533-23.11c4.089-17.681,6.571-35.698,7.262-53.774
		c2.285,2.012,4.759,3.752,7.484,5.134c12.837,6.621,28.8,5.886,38.569-5.84c10.177-12.188,8.251-35.295-11.01-37.026
		c-14.562-1.14-21.96,22.962-6.397,22.32c2.225-6.048-6.833-11.489,4.299-13.316c12.059,0.535,8.501,16.526,2.794,21.855
		c-11.84,10.972-26.757,3.096-35.636-8.669c-0.673-33.77-7.583-67.439-21.594-99.18c-33.47,57.495-67.823,116.414-117.753,161.357
		C585.9,1422.42,516.982,1452.153,450.431,1480.276z M625.975,1429.802c36.143,15.222,92.584-34.521,74.795-72.58
		c32.101-1.812,56.621-29.119,58.005-60.95c0.584-13.276-4.036-25.984-12.598-36.023c3.122-5.127,6.213-10.286,9.26-15.464
		c28.624,95.959-5.12,195.847-70.677,268.186c-95.471,105.31-235.763,156.814-368.004,198.257
		c-43.213,13.55-85.721,28.821-123.572,54.167c-51.04,34.17-119.775,120.608-133.689,139.78c-1.967-6.557,0.207-14.634,0.83-21.682
		c29.435-7.234,32.752-48.389,12.114-57.056c25.271-8.301,57.999-58.481,31.415-83.188c32.724,1.523,56.299-32.212,42.162-63.75
		c32.746,5.747,65.779-19.966,64.474-54.094c35.206,18.018,67.962-5.215,72.241-42.429c32.626,26.929,81.233-0.234,94.948-35.242
		c30.711,22.82,82.119-2.698,90.709-37.446c31.554,28.574,79.864-2.658,84.345-40.527
		C581.692,1496.88,630.974,1467.954,625.975,1429.802z"/>
	<path style="fill:#603913;" d="M129.396,1777.099c4.644-5.271,12.674-5.769,17.941-1.133c5.265,4.641,5.77,12.678,1.127,17.94
		c-4.64,5.266-12.673,5.776-17.938,1.135C125.257,1790.396,124.757,1782.359,129.396,1777.099z"/>
	<path style="fill:#603913;" d="M161.411,1731.189c4.636-5.268,12.671-5.774,17.938-1.128c5.265,4.641,5.769,12.671,1.129,17.937
		c-4.643,5.266-12.677,5.769-17.942,1.13C157.27,1744.487,156.769,1736.45,161.411,1731.189z"/>
	<path style="fill:#603913;" d="M204.138,1694.724c4.646-5.261,12.674-5.766,17.94-1.12c5.268,4.641,5.774,12.676,1.132,17.937
		c-4.641,5.264-12.674,5.769-17.942,1.123C200.008,1708.025,199.497,1699.993,204.138,1694.724z"/>
	<path style="fill:#603913;" d="M254.453,1671.301c4.639-5.261,12.678-5.769,17.942-1.125c5.264,4.644,5.77,12.678,1.127,17.944
		c-4.643,5.266-12.68,5.767-17.943,1.128C250.313,1684.602,249.809,1676.57,254.453,1671.301z"/>
	<path style="fill:#603913;" d="M311.346,1645.213c4.64-5.261,12.68-5.769,17.943-1.125c5.268,4.643,5.77,12.678,1.127,17.942
		c-4.643,5.266-12.676,5.767-17.942,1.128C307.212,1658.518,306.708,1650.479,311.346,1645.213z"/>
	<path style="fill:#603913;" d="M374.974,1618.703c4.64-5.264,12.675-5.766,17.946-1.123c5.265,4.639,5.77,12.678,1.123,17.94
		c-4.643,5.266-12.673,5.769-17.941,1.123C370.837,1632.005,370.332,1623.965,374.974,1618.703z"/>
	<path style="fill:#603913;" d="M430.962,1596.047c4.635-5.259,12.671-5.764,17.935-1.128c5.262,4.651,5.773,12.678,1.127,17.944
		c-4.643,5.266-12.674,5.766-17.934,1.123C426.823,1609.343,426.315,1601.321,430.962,1596.047z"/>
	<path style="fill:#603913;" d="M495.775,1570.589c4.643-5.264,12.673-5.76,17.938-1.128c5.266,4.646,5.769,12.678,1.129,17.944
		c-4.644,5.261-12.675,5.764-17.937,1.125C491.639,1583.887,491.13,1575.854,495.775,1570.589z"/>
	<path style="fill:#603913;" d="M553.581,1541.059c4.641-5.259,12.674-5.766,17.945-1.123c5.266,4.641,5.766,12.678,1.124,17.942
		c-4.647,5.266-12.678,5.774-17.944,1.12C549.448,1554.365,548.933,1546.328,553.581,1541.059z"/>
	<path style="fill:#603913;" d="M607.809,1508.386c4.642-5.264,12.68-5.764,17.941-1.126c5.268,4.646,5.77,12.678,1.13,17.942
		c-4.646,5.266-12.675,5.769-17.941,1.13C603.673,1521.687,603.17,1513.655,607.809,1508.386z"/>
	<path style="fill:#603913;" d="M661.194,1462.261c4.645-5.264,12.676-5.764,17.937-1.125c5.269,4.644,5.772,12.673,1.131,17.937
		c-4.641,5.269-12.67,5.769-17.933,1.125C657.06,1475.557,656.555,1467.525,661.194,1462.261z"/>
	<path style="fill:#603913;" d="M709.536,1407.442c4.64-5.269,12.669-5.767,17.938-1.128c5.264,4.644,5.768,12.676,1.132,17.937
		c-4.643,5.266-12.68,5.769-17.942,1.13C705.396,1420.74,704.894,1412.703,709.536,1407.442z"/>
	<path style="fill:#603913;" d="M200.344,1232.249c-13.714,15.552-11.438,43.74,4.681,57.959c2.615,2.305,5.504,4.216,8.671,5.672
		c-0.059,0.136-0.156,0.244-0.214,0.378c-3.339,6.526-12.208,23.87,11.565,44.831c14.694,12.962,39.644,25.237,74.264,36.573
		c41.508,13.528,78.665,20.691,113.585,21.797c42.568,1.372,89.595-6.245,132.959-19.832
		c49.135-15.401,91.617-44.492,120.997-73.633c-43.634,51.292-102.77,77.31-153.257,89.673
		c-53.546,13.089-98.443,22.429-147.872,12.976c-47.031-9.001-84.396-26.308-127.596-46.352l-4.383-2.021
		c-21.98-10.171-67.303-10.801-81.639,7.69c-4.912,6.362-7.863,17.28,3.851,34.404c-39.533-10.444-61.659-0.342-69.245,13.237
		c-6.444,11.419-3.032,25.417,8.554,35.633c6.936,6.108,19.691,13.484,41.547,14.648c-1.059,6.819-3.066,24.236,12.048,37.571
		c18.806,16.582,57.08,20.459,113.717,11.426c60.125-9.522,105.286-18.941,146.4-30.474c53.103-14.892,98.329-33.022,138.19-55.391
		c50.829-28.523,90.35-59.438,120.979-94.46c32.288-36.978,57.549-81.629,77.848-117.476l-3.94-2.666l-6.483-6.162l-11.695,14.167
		c-3.707,5.493-38.149,54.429-96.345,87.068c-63.65,35.642-128.8,37.166-193.626,4.602c-7.042-3.542-20.889-14.932-36.852-28.11
		c-39.57-32.673-93.714-77.422-119.211-66.233c-7.4,3.274-11.918,10.918-13.369,22.727
		C225.703,1209.614,205.641,1226.24,200.344,1232.249z M261.843,1510.163c-12.604,2.036-24.204,3.377-34.867,4.082l0.163-0.178
		c-0.331-0.352-32.579-35.845-29.767-79.248c1.625-25.125,14.637-48.096,38.634-68.247l0.103,0.027
		c16.416,7.613,32.447,15.02,48.718,21.795c-31.158,48.089-10.754,105.674-5.409,118.911
		C273.679,1508.271,267.898,1509.212,261.843,1510.163z M342.784,1495.557c-4.676-7.751-26.052-47.495,1.086-86.995
		c6.829,1.76,13.787,3.384,20.966,4.763c5.635,1.025,11.194,1.858,16.731,2.49c-21.2,30.105-8.235,61.875-3.258,71.667
		C366.968,1490.256,355.181,1492.949,342.784,1495.557z M429.232,1473.472c-3.133-7.468-11.828-32.859,1.7-57.346
		c22.53-2.053,45.281-6.665,69.662-12.414c-13.052,20.644-6.395,38.393-3.234,44.675
		C476.227,1457.583,453.579,1465.901,429.232,1473.472z M484.236,1337.368c11.684,2.607,23.302,4.209,34.943,4.688
		c-7.174,5.115-11.746,11.379-13.58,18.647c-2.624,10.337,0.874,19.839,2.937,24.207c-16.981,3.904-34.197,6.633-51.19,8.247
		C456.36,1386.563,456.079,1365.342,484.236,1337.368z M412.695,1304.846c8.037,6.455,14.588,11.277,19.053,13.491
		c2.014,1.028,4.037,1.914,6.056,2.866c-43.84,30.613-42.649,61.985-40.696,72.525c-13.518-1.101-27.487-3.13-41.921-6.074
		C354.634,1379.92,353.413,1330.999,412.695,1304.846z M342.466,1249.151c11.453,8.127,23.064,17.226,33.878,26.003
		c-71.193,32.605-76.491,83.655-76.533,97.61c-13.45-4.417-25.352-9.014-35.783-13.689
		C264.289,1350.205,268.8,1286.572,342.466,1249.151z"/>
	<g>
		<path style="fill:#603913;" d="M277.881,1490.462c0.454,0.4,0.754,0.976,0.791,1.633c0.066,1.289-0.923,2.378-2.217,2.441
			l-65.091,3.123c-1.278,0.063-2.378-0.935-2.453-2.217c-0.064-1.284,0.925-2.38,2.213-2.442l65.099-3.122
			C276.85,1489.849,277.438,1490.073,277.881,1490.462z"/>
		<path style="fill:#603913;" d="M274.253,1472.966c0.494,0.437,0.79,1.074,0.78,1.782c-0.015,1.294-1.081,2.327-2.373,2.317
			l-70.806-0.64c-1.293-0.02-2.322-1.069-2.294-2.361c0.018-1.299,1.085-2.331,2.374-2.319l70.807,0.642
			C273.32,1472.397,273.853,1472.612,274.253,1472.966z"/>
		<path style="fill:#603913;" d="M271.31,1453.696c0.546,0.471,0.869,1.194,0.803,1.975c-0.105,1.311-1.256,2.29-2.562,2.188
			l-74.244-5.886c-1.31-0.107-2.289-1.252-2.188-2.571c0.106-1.306,1.251-2.288,2.564-2.182l74.243,5.886
			C270.46,1453.152,270.94,1453.367,271.31,1453.696z"/>
		<path style="fill:#603913;" d="M271.835,1435.088c0.569,0.503,0.892,1.282,0.786,2.097c-0.167,1.304-1.371,2.222-2.671,2.051
			l-74.063-9.7c-1.304-0.164-2.225-1.357-2.053-2.668c0.167-1.301,1.37-2.224,2.667-2.051l74.057,9.699
			C271.058,1434.575,271.486,1434.783,271.835,1435.088z"/>
		<path style="fill:#603913;" d="M275.377,1417.556c0.612,0.544,0.93,1.391,0.755,2.258c-0.255,1.292-1.507,2.127-2.795,1.865
			l-70.967-14.112c-1.282-0.251-2.128-1.506-1.867-2.803c0.256-1.292,1.507-2.126,2.798-1.87l70.962,14.114
			C274.693,1417.097,275.065,1417.287,275.377,1417.556z"/>
		<path style="fill:#603913;" d="M281.15,1402.002c0.678,0.588,0.98,1.545,0.71,2.458c-0.37,1.264-1.699,1.985-2.955,1.609
			l-63.658-18.796c-1.266-0.371-1.985-1.689-1.615-2.954c0.375-1.267,1.701-1.985,2.962-1.614l63.657,18.797
			C280.592,1401.607,280.897,1401.777,281.15,1402.002z"/>
		<path style="fill:#603913;" d="M303.425,1366.828c0.74,0.657,1.022,1.734,0.622,2.696c-0.504,1.218-1.889,1.799-3.113,1.292
			l-39.003-16.123c-1.211-0.503-1.791-1.895-1.286-3.11c0.498-1.216,1.891-1.795,3.109-1.289l39.004,16.123
			C303.012,1366.519,303.23,1366.665,303.425,1366.828z"/>
		<path style="fill:#603913;" d="M305.943,1353.164c0.758,0.667,1.034,1.77,0.609,2.739c-0.53,1.208-1.937,1.755-3.142,1.233
			l-39.503-17.361c-1.23-0.535-1.75-1.936-1.23-3.14c0.532-1.211,1.94-1.758,3.146-1.228l39.501,17.358
			C305.554,1352.874,305.763,1353.005,305.943,1353.164z"/>
		<path style="fill:#603913;" d="M309.902,1339.177c0.773,0.681,1.009,1.843,0.486,2.825c-0.608,1.165-2.029,1.648-3.163,1.074
			l-37.754-18.987c-1.145-0.579-1.568-1.99-0.957-3.142c0.61-1.169,2.027-1.648,3.168-1.077l37.748,18.989
			C309.606,1338.943,309.763,1339.06,309.902,1339.177z"/>
		<path style="fill:#603913;" d="M317.999,1323.281c0.841,0.74,1.068,2.005,0.463,3.008c-0.669,1.128-2.136,1.499-3.269,0.825
			l-36.405-21.777c-1.113-0.657-1.499-2.136-0.82-3.264c0.673-1.13,2.139-1.506,3.274-0.828l36.404,21.775
			C317.776,1323.093,317.892,1323.183,317.999,1323.281z"/>
		<path style="fill:#603913;" d="M328.124,1311.555c0.901,0.796,1.052,2.163,0.325,3.161c-0.78,1.064-2.261,1.313-3.313,0.552
			l-35.736-25.95c-1.074-0.789-1.271-2.239-0.491-3.303c0.774-1.067,2.258-1.316,3.307-0.552l35.737,25.955
			C328.017,1311.465,328.069,1311.504,328.124,1311.555z"/>
		<path style="fill:#603913;" d="M339.16,1299.839c0.929,0.823,1.05,2.249,0.264,3.24c-0.82,1.035-2.306,1.216-3.32,0.417
			l-34.957-27.646c-1.007-0.825-1.177-2.292-0.355-3.32c0.822-1.033,2.302-1.216,3.32-0.417l34.954,27.646
			C339.098,1299.79,339.131,1299.817,339.16,1299.839z"/>
		<path style="fill:#603913;" d="M354.453,1287.905c0.922,0.811,1.029,2.224,0.236,3.22c-0.818,1.037-2.29,1.221-3.299,0.437
			l-34.98-27.671c-1.033-0.801-1.145-2.273-0.325-3.303c0.817-1.033,2.295-1.221,3.298-0.43l34.978,27.671
			C354.396,1287.849,354.424,1287.876,354.453,1287.905z"/>
		<path style="fill:#603913;" d="M369.282,1279.531c0.929,0.825,1.073,2.249,0.313,3.24c-0.803,1.042-2.305,1.238-3.345,0.437
			l-35.486-27.322c-1.025-0.838-1.241-2.3-0.438-3.34c0.799-1.045,2.297-1.235,3.342-0.435l35.488,27.319
			C369.202,1279.46,369.241,1279.497,369.282,1279.531z"/>
		<path style="fill:#603913;" d="M399.198,1386.14c0.585,0.513,0.907,1.304,0.776,2.141c-0.193,1.304-1.412,2.2-2.71,2.005
			l-43.467-6.56c-1.299-0.195-2.198-1.406-2.008-2.708c0.198-1.304,1.416-2.207,2.715-2.004l43.469,6.557
			C398.445,1385.637,398.858,1385.842,399.198,1386.14z"/>
		<path style="fill:#603913;" d="M400.193,1375.1c0.603,0.535,0.924,1.375,0.764,2.227c-0.246,1.296-1.491,2.148-2.787,1.902
			l-43.574-8.237c-1.292-0.239-2.148-1.487-1.901-2.778c0.243-1.302,1.493-2.154,2.79-1.902l43.57,8.237
			C399.496,1374.626,399.88,1374.827,400.193,1375.1z"/>
		<path style="fill:#603913;" d="M402.128,1365.693c0.673,0.591,0.986,1.531,0.718,2.454c-0.369,1.26-1.692,1.992-2.955,1.626
			l-41.711-12.161c-1.261-0.376-1.992-1.684-1.624-2.952c0.372-1.27,1.69-1.992,2.956-1.624l41.709,12.151
			C401.569,1365.296,401.876,1365.464,402.128,1365.693z"/>
		<path style="fill:#603913;" d="M407.667,1353.103c0.741,0.647,1.028,1.709,0.642,2.678c-0.496,1.221-1.882,1.804-3.098,1.314
			l-38.113-15.33c-1.222-0.488-1.813-1.875-1.325-3.101c0.488-1.216,1.879-1.812,3.099-1.318l38.113,15.332
			C407.241,1352.788,407.474,1352.93,407.667,1353.103z"/>
		<path style="fill:#603913;" d="M416.682,1341.985c0.789,0.691,1.051,1.856,0.555,2.844c-0.582,1.177-2.01,1.665-3.19,1.077
			l-37.031-18.359c-1.19-0.601-1.66-2.017-1.082-3.186c0.585-1.184,2.014-1.663,3.191-1.079l37.04,18.354
			C416.359,1341.731,416.53,1341.848,416.682,1341.985z"/>
		<path style="fill:#603913;" d="M424.23,1334.336c0.857,0.757,1.067,2.058,0.425,3.064c-0.7,1.108-2.174,1.443-3.287,0.735
			l-32.095-20.359c-1.094-0.667-1.435-2.176-0.737-3.289c0.708-1.111,2.18-1.445,3.295-0.74l32.095,20.359
			C424.032,1334.177,424.13,1334.255,424.23,1334.336z"/>
		<path style="fill:#603913;" d="M431.763,1326.684c0.874,0.769,1.076,2.075,0.423,3.076c-0.715,1.106-2.189,1.426-3.288,0.708
			l-30.365-19.619c-1.084-0.732-1.422-2.185-0.708-3.293c0.719-1.109,2.189-1.421,3.298-0.71l30.359,19.624
			C431.582,1326.533,431.675,1326.606,431.763,1326.684z"/>
		<path style="fill:#603913;" d="M379.78,1480.229c0.391,0.344,0.674,0.816,0.771,1.375c0.225,1.299-0.642,2.532-1.935,2.761
			l-41.338,7.241c-1.297,0.225-2.534-0.652-2.76-1.938c-0.225-1.299,0.643-2.527,1.936-2.761l41.338-7.239
			C378.534,1479.534,379.25,1479.766,379.78,1480.229z"/>
		<path style="fill:#603913;" d="M376.012,1467.38c0.411,0.352,0.699,0.857,0.78,1.431c0.202,1.289-0.691,2.517-1.988,2.708
			l-42.234,6.453c-1.297,0.205-2.527-0.691-2.705-1.995c-0.204-1.296,0.686-2.517,1.99-2.715l42.225-6.453
			C374.813,1466.694,375.505,1466.924,376.012,1467.38z"/>
		<path style="fill:#603913;" d="M373.255,1457c0.454,0.403,0.763,0.981,0.803,1.633c0.082,1.318-0.913,2.444-2.228,2.532
			l-42.888,2.693c-1.318,0.08-2.445-0.916-2.529-2.227c-0.085-1.318,0.911-2.449,2.224-2.524l42.891-2.698
			C372.184,1456.365,372.796,1456.594,373.255,1457z"/>
		<path style="fill:#603913;" d="M374.038,1442.593c0.481,0.43,0.786,1.045,0.807,1.731c0.028,1.318-1.013,2.41-2.327,2.441
			l-42.992,1.013c-1.32,0.027-2.408-1.016-2.441-2.324c-0.03-1.318,1.014-2.407,2.326-2.441l42.993-1.013
			C373.03,1441.983,373.599,1442.214,374.038,1442.593z"/>
		<path style="fill:#603913;" d="M377.899,1430.115c0.531,0.466,0.841,1.162,0.797,1.922c-0.072,1.313-1.2,2.317-2.511,2.244
			l-45.336-2.639c-1.309-0.073-2.318-1.203-2.237-2.52c0.074-1.313,1.198-2.309,2.511-2.241l45.338,2.641
			C377.004,1429.553,377.511,1429.773,377.899,1430.115z"/>
		<path style="fill:#603913;" d="M381.181,1421.096c0.574,0.503,0.882,1.284,0.743,2.099c-0.206,1.275-1.4,2.146-2.667,1.948
			l-42.736-6.511c-1.26-0.173-2.114-1.375-1.908-2.646c0.206-1.27,1.403-2.144,2.667-1.941l42.738,6.504
			C380.464,1420.62,380.863,1420.813,381.181,1421.096z"/>
		<path style="fill:#603913;" d="M499.682,1442.439c0.301,0.269,0.543,0.618,0.682,1.023c0.43,1.23-0.218,2.571-1.454,2.976
			l-72.705,23.911c-1.241,0.406-2.593-0.283-3.019-1.506c-0.43-1.238,0.224-2.573,1.454-2.979l72.714-23.913
			C498.186,1441.682,499.063,1441.897,499.682,1442.439z"/>
		<path style="fill:#603913;" d="M495.292,1433.005c0.322,0.286,0.573,0.655,0.712,1.084c0.405,1.233-0.259,2.515-1.488,2.859
			l-71.771,20.142c-1.233,0.349-2.555-0.383-2.954-1.609c-0.405-1.238,0.266-2.517,1.49-2.861l71.777-20.149
			C493.856,1432.251,494.695,1432.475,495.292,1433.005z"/>
		<path style="fill:#603913;" d="M496.754,1420.532c0.34,0.295,0.594,0.698,0.726,1.167c0.345,1.264-0.404,2.576-1.675,2.92
			l-73.053,19.785c-1.268,0.349-2.584-0.403-2.921-1.672c-0.349-1.267,0.405-2.581,1.68-2.923l73.048-19.787
			C495.359,1419.797,496.178,1420.02,496.754,1420.532z"/>
		<path style="fill:#603913;" d="M499.487,1410.232c0.376,0.325,0.648,0.774,0.753,1.292c0.276,1.291-0.547,2.549-1.836,2.829
			l-74.159,15.632c-1.295,0.269-2.553-0.552-2.822-1.843c-0.277-1.282,0.553-2.549,1.836-2.824l74.158-15.635
			C498.186,1409.521,498.942,1409.749,499.487,1410.232z"/>
		<path style="fill:#603913;" d="M509.808,1379.614c0.41,0.361,0.704,0.872,0.783,1.465c0.182,1.304-0.737,2.505-2.043,2.681
			l-52.32,7.085c-1.301,0.176-2.495-0.737-2.682-2.038c-0.176-1.304,0.738-2.512,2.044-2.678l52.321-7.088
			C508.62,1378.943,509.308,1379.165,509.808,1379.614z"/>
		<path style="fill:#603913;" d="M508.276,1368.733c0.433,0.378,0.721,0.908,0.797,1.518c0.148,1.301-0.798,2.49-2.104,2.629
			l-50.301,5.703c-1.312,0.146-2.49-0.808-2.635-2.107c-0.144-1.301,0.798-2.485,2.104-2.639l50.298-5.696
			C507.134,1368.069,507.79,1368.303,508.276,1368.733z"/>
		<path style="fill:#603913;" d="M509.375,1359.373c0.458,0.405,0.76,0.981,0.801,1.641c0.09,1.311-0.913,2.449-2.224,2.524
			l-46.248,2.908c-1.32,0.088-2.449-0.911-2.533-2.229c-0.086-1.316,0.913-2.446,2.231-2.529l46.253-2.903
			C508.31,1358.743,508.917,1358.97,509.375,1359.373z"/>
		<path style="fill:#603913;" d="M513.501,1351.094c0.49,0.435,0.803,1.072,0.805,1.782c0.01,1.313-1.05,2.38-2.362,2.39
			l-43.892,0.225c-1.318,0.005-2.387-1.052-2.391-2.371c-0.013-1.313,1.046-2.387,2.362-2.395l43.888-0.227
			C512.518,1350.498,513.078,1350.725,513.501,1351.094z"/>
		<path style="fill:#603913;" d="M518.904,1343.941c0.532,0.469,0.831,1.201,0.745,1.982c-0.146,1.292-1.31,2.251-2.602,2.144
			l-40.729-3.345c-1.274-0.1-2.204-1.233-2.051-2.532c0.148-1.291,1.311-2.253,2.597-2.151l40.737,3.352
			C518.094,1343.43,518.554,1343.635,518.904,1343.941z"/>
	</g>
	<path style="fill:#603913;" d="M744.023,1215.747c-48.089,57.998-135.067,104.019-210.558,104.378
		c-74.938,0.356-153.065-47.62-166.08-125.703c-9.592-57.593,27.747-126.064,94.664-114.604
		c30.06,5.156,57.887,34.248,39.456,65.479c-4.681,7.732-12.408,13.152-21.666,13.449c-9.249,0.296-22.047-6.067-18.409-17.59
		c2.484-7.893,7.547,4.124,10.366,4.917c5.591,1.553,11.033-3.506,12.252-8.542c4.954-9.402-5.707-19.736-12.877-22.988
		c-23.177-6.692-47.096,5.01-57.518,26.257c-12.995,26.514-7.608,60.325,8.98,85.684c22.866,34.941,62.224,55.122,103.003,59.804
		c38.363,4.395,77.71-2.751,113.93-15.378c18.005-6.279,35.448-14.158,52.062-23.494c9.053-5.093,37.725-26.113,46.346-36.787
		C740.73,1214.114,744.023,1215.747,744.023,1215.747z"/>
	<path style="fill:#603913;" d="M258.833,936.915c-0.316,7.26-5.547,47.773-7.324,60.796c-2.389,17.482-2.12,33.119,7.54,50.155
		c-27.733-6.587-57.142,1.745-84.666,7.439c-7.463,0.176-11.701,6.726-9.176,10.925c12.906,21.458,24.962,39.978,34.631,62.156
		c8.165,18.73,18.665,35.713,32.346,50.879c29.68,32.908,66.102,28.093,105.25,21.201c5.605-0.986,7.399-6.921,5.753-10.854
		c8.18-31.245,9.031-60.347,30.266-87.405c21.59-27.498,61.503-40.4,103.759-29.783c14.691-11.238,30.879-32.319,35.792-48.008
		c5.886-18.809,5.76-37.284,2.081-56.563c-3.312-17.395-10.803-33.534-20.095-48.478c-12.214-19.653-36.35-35.55-38.998-59.974
		c-0.015-0.162-0.069-0.298-0.095-0.458c1.956-7.009-9.313-11.755-13.607-4.464c-14.509,24.629-45.062,38.085-60.178,63.44
		c-8.865,14.862-12.871,30.172-14.841,46.533c-23.999-22.75-60.36-31.213-91.986-37.717
		C262.319,922.276,258.414,925.997,258.833,936.915z M328.86,1187.61c-14.554,2.766-29.157,6.47-44.001,4.731
		c-46.772-5.452-70.259-63.503-82.103-117.637c85.449-37.449,100.023,12.783,136.281,53.377
		C332.339,1148.459,328.297,1164.754,328.86,1187.61z M407.458,924.432c11.405-12.565,25.675-22.263,36.958-34.607
		c8.379,22.174,29.143,39.034,41.52,58.943c11.741,18.871,17.464,25.653,17.689,47.634c0.254,24.821-15.235,41.51-29.77,59.296
		c-21.039-8.303-43.834-5.889-64.422,2.654c-7.239-15.593-8.727-33.003-13.25-49.465c-3.025-11.019-8.897-21.051-15.958-30.079
		C381.835,950.795,388.301,945.524,407.458,924.432z M359.729,976.957c28.666,20.103,23.891,58.236,36.97,87.572
		c-23.337,11.279-39.149,28.311-49.037,51.138c-17.841-24.094-40.215-46.68-67.251-59.88c-12.816-37.498-5.648-74.379,4.111-95.435
		C314.362,959.921,338.482,962.075,359.729,976.957z"/>
	<g>
		<path style="fill:#603913;" d="M335.592,1160.464c-38.616-20.654-80.825-42.051-113.391-71.78
			c35.257,25.869,79.136,42.515,119.396,58.806C339.59,1151.819,337.598,1156.135,335.592,1160.464
			C315.738,1149.851,335.592,1160.464,335.592,1160.464z"/>
		<path style="fill:#603913;" d="M333.747,1177.854c-22.66-3.718-46.627-9.057-67.079-19.78c21.658,6.125,45.559,6.501,67.897,5.508
			C334.296,1168.338,334.021,1173.1,333.747,1177.854C327.799,1176.873,333.747,1177.854,333.747,1177.854z"/>
		<path style="fill:#603913;" d="M338.182,1145.52c-17.436-13.438-35.212-26.85-51.296-41.907
			c18.829,11.17,38.949,20.381,58.735,29.695C343.143,1137.385,340.658,1141.45,338.182,1145.52
			C329.407,1138.755,338.182,1145.52,338.182,1145.52z"/>
		<path style="fill:#603913;" d="M367.471,1091.059c-23.875-36.225-47.688-72.727-68.905-110.597
			c25.169,35.199,52.755,68.771,80.375,102.066C375.122,1085.371,371.293,1088.218,367.471,1091.059
			C355.493,1072.883,367.471,1091.059,367.471,1091.059z"/>
		<path style="fill:#603913;" d="M356.617,1103.911c-15.292-19.031-30.574-38.066-45.865-57.097
			c18.694,15.703,37.39,31.396,56.085,47.097C363.432,1097.249,360.023,1100.574,356.617,1103.911L356.617,1103.911z"/>
		<path style="fill:#603913;" d="M379.902,1079.771c-5.617-20.244-11.242-40.479-16.865-60.723
			c10.044,18.455,20.082,36.907,30.122,55.359C388.737,1076.199,384.316,1077.986,379.902,1079.771L379.902,1079.771z"/>
		<path style="fill:#603913;" d="M431.747,1057.366c2.203-40.945,4.405-81.889,6.609-122.835
			c2.566,40.923,5.134,81.848,7.695,122.773C441.285,1057.329,436.511,1057.346,431.747,1057.366L431.747,1057.366z"/>
		<path style="fill:#603913;" d="M452.742,1056.238c7.825-20.02,17.188-42.188,18.799-63.849
			c3.063,21.928-1.528,46.041-5.017,67.662C461.929,1058.782,457.336,1057.51,452.742,1056.238
			C456.753,1045.986,452.742,1056.238,452.742,1056.238z"/>
		<path style="fill:#603913;" d="M415.56,1060.984c-2.866-27.273-5.732-54.558-8.592-81.847
			c7.551,26.373,15.085,52.758,22.626,79.137C424.923,1059.172,420.236,1060.085,415.56,1060.984L415.56,1060.984z"/>
	</g>
	<path style="fill:#603913;" d="M324.968,822.794c-9.642,33.55-12.121,81.687,5.912,112.742c4.644,7.993,16.575,0.105,11.968-7.828
		c-23.6-40.656-8.262-105.509,14.1-143.204c25.388-42.779,68.891-79.294,117.383-91.05c51.047-12.37,102.539,8.205,117.385,60.716
		c7.092,25.045-2.391,51.821-22.312,67.936c-11.727,9.487-28.082,12.96-41.091,3.96c-5.267-5.065-9.418-10.928-12.453-17.594
		c-9.241-19.464,18.297-16.996,24.879-16.129c9.089,1.21,11.925-12.816,2.75-14.026c-18.152-2.409-49.982,3.309-42.65,29.504
		c7.919,28.268,31.618,43.28,59.821,35.061c21.543-6.272,34.613-19.8,41.142-36.44c44.487,4.156,89.823-43.38,103.368-76.239
		c22.984-5.227,44.279-14.311,60.989-27.476c33.328-26.258,60.914-104.119,11.027-129.541
		c-45.841-23.365-102.289,12.897-81.406,65.142c7.217,18.054,24.88,22.746,40.712,13.902c8.928-4.993,27.656-23.863,8.319-28.96
		c-6.637-1.753-9.835,5.57-7.373,10.397c-2.704,2.507-5.607,4.723-8.776,6.593c-10.313,6.737-17.926-2.975-21.49-11.896
		c-8.821-22.058,5.493-39.689,25.631-46.378c48.026-15.949,64.166,36.44,50.747,72.03c-27.163,72.024-141.221,80.938-202.392,52.533
		c-2.301-2.721-4.724-5.274-7.258-7.608c-53.551-49.339-143.121-15.567-187.384,28.628
		C358.599,755.438,336.016,784.382,324.968,822.794z M673.097,734.953c4.971-0.367,9.926-0.917,14.841-1.611
		c-15.598,29.337-48.402,61.012-82.27,59.123c0.653-3.777,1.081-7.63,1.226-11.547C634.498,780.531,668.234,746.798,673.097,734.953
		z M635.549,733.867c6.381,0.58,12.773,1.686,19.27,1.718c-12.271,15.65-28.131,31.565-48.465,31.168
		c-0.43-4.069-1.071-8.138-1.961-12.174C613.583,755.731,630.713,744.304,635.549,733.867z M620.217,732.759
		c-5.853,6.664-15.702,11.08-19.757,8.147c-1.706-4.823-3.706-9.53-5.99-14.043C602.667,729.384,611.323,731.315,620.217,732.759z"
		/>
	<g>
		<path style="fill:#603913;" d="M724.806,1070.959c28.41-2.939,47.265,0.798,47.265,0.798s-13.389,12.512-37.411,28.901
			c-20.347,13.882-44.541,7.402-47.26-0.796C684.675,1091.662,700.303,1073.506,724.806,1070.959z"/>
		<path style="fill:#603913;" d="M775.012,1076.487c-6.521,14.429-28.91,46.035-16.019,63.945
			C734.595,1142.673,730.454,1100.6,775.012,1076.487z"/>
		<path style="fill:#603913;" d="M771.568,1066.113c-13.846-7.663-50.697-19.614-51.076-41.677
			C699.599,1037.229,721.439,1073.43,771.568,1066.113z"/>
		<path style="fill:#603913;" d="M719.739,1063.394c-26.155,6.318-61.748-22.573-46.817-50.435
			c5.333-9.951,19.799-18.182,30.335-10.788c4.742,3.325,8.335,10.215,5.737,15.91c-2.414,5.293-13.039,8.696-13.91,0.435
			c3.395-1.655,3.684,3.167,7.342,1.153c6.741-3.298,1.028-12.058-3.712-13.94c-10.476-4.15-21.36,7.651-22.267,17.28
			c-1.184,11.755,6.752,23.979,15.974,30.525c4.721,3.349,10.178,5.637,15.869,6.701
			C711.545,1060.847,720.318,1059.009,719.739,1063.394C713.955,1064.787,719.739,1063.394,719.739,1063.394z"/>
		<path style="fill:#603913;" d="M736.446,1112.28c-17.724,10.85-28.165,41.626-10.301,57.395
			c6.759,5.982,21.204,7.905,26.664-0.947c2.468-3.999,2.505-12.024-3.204-13.342c-5.997-1.382-3.324,4.507-7.351,5.259
			c-3.717-6.272,4.648-10.327,9.731-8.692c6.774,2.185,8.591,10.83,6.591,16.909c-4.281,12.993-22.191,14.417-32.516,8.584
			c-12.822-7.234-16.814-24.607-14.149-38.176c1.333-6.799,4.402-13.266,8.866-18.564
			C722.816,1118.32,735.031,1106.035,736.446,1112.28C726.851,1118.152,736.446,1112.28,736.446,1112.28z"/>
	</g>
	<g>
		<path style="fill:#603913;" d="M755.509,871.47c22.763,17.251,33.983,32.859,33.983,32.859s-18.319-0.001-47.064-4.431
			c-24.346-3.754-37.593-25.009-33.985-32.857C712.058,859.188,735.868,856.596,755.509,871.47z"/>
		<path style="fill:#603913;" d="M788.418,909.79c-14.622,6.091-52.56,13.889-55.377,35.779
			C713.69,930.548,739.398,896.979,788.418,909.79z"/>
		<path style="fill:#603913;" d="M792.979,899.863c-4.878-15.061-23.641-48.955-8.854-65.327
			C760.126,829.616,751.36,870.975,792.979,899.863z"/>
		<path style="fill:#603913;" d="M756.976,862.479c-23.427-13.237-29.696-58.654,0.234-68.815
			c10.692-3.629,26.878,0.241,29.526,12.838c1.19,5.668-0.884,13.152-6.669,15.537c-5.375,2.218-15.467-2.55-10.462-9.177
			c3.613,1.107,0.527,4.827,4.579,5.857c7.174,2.192,8.987-8.113,6.809-12.726c-4.823-10.181-20.83-8.993-28.069-2.576
			c-8.896,7.778-11.445,22.126-9.175,33.208c1.162,5.673,3.586,11.068,7.016,15.734
			C752.724,855.026,760.388,859.675,756.976,862.479C751.796,859.552,756.976,862.479,756.976,862.479z"/>
		<path style="fill:#603913;" d="M735.791,909.609c-20.347-4.182-48.995,11.173-46.714,34.888
			c0.859,8.983,10.09,20.261,20.13,17.518c4.527-1.235,10.039-7.078,6.771-11.938c-3.443-5.101-5.505,1.023-8.964-1.179
			c1.563-7.118,10.444-4.365,13.038,0.3c3.458,6.223-1.115,13.78-6.723,16.854c-12.001,6.57-26.065-4.621-29.631-15.93
			c-4.42-14.047,4.529-29.463,15.743-37.561c5.619-4.053,12.274-6.68,19.158-7.499C721.714,904.714,739.026,904.077,735.791,909.609
			C724.774,907.339,735.791,909.609,735.791,909.609z"/>
	</g>
	<g>
		<path style="fill:#603913;" d="M875.063,1239.639c14.974-24.326,29.43-36.992,29.43-36.992s1.76,18.237,0.128,47.271
			c-1.388,24.597-21.262,39.832-29.428,36.997C867.031,1284.077,862.151,1260.628,875.063,1239.639z"/>
		<path style="fill:#603913;" d="M910.034,1203.193c7.468,13.958,18.892,50.972,40.956,51.66
			C937.901,1275.567,902.01,1253.215,910.034,1203.193z"/>
		<path style="fill:#603913;" d="M899.712,1199.607c-14.523,6.311-46.445,28.254-64.17,15.117
			C832.954,1239.087,874.968,1243.816,899.712,1199.607z"/>
		<path style="fill:#603913;" d="M865.974,1239.046c-10.916,24.597-55.514,35.224-68.514,6.408c-4.642-10.293-2.36-26.78,9.92-30.62
			c5.532-1.743,13.185-0.401,16.115,5.132c2.731,5.137-1.04,15.64-8.128,11.299c0.754-3.704,4.754-0.989,5.388-5.122
			c1.491-7.351-8.935-8.164-13.317-5.549c-9.673,5.784-6.946,21.607,0.144,28.186c8.599,8.105,23.122,9.26,33.934,5.925
			c5.532-1.697,10.674-4.634,14.987-8.501C858.961,1244.004,862.852,1235.921,865.974,1239.046
			C863.561,1244.49,865.974,1239.046,865.974,1239.046z"/>
		<path style="fill:#603913;" d="M914.925,1255.583c-2.195,20.654,15.849,47.691,39.243,43.13
			c8.857-1.719,19.181-11.997,15.487-21.721c-1.669-4.39-8.015-9.309-12.529-5.589c-4.755,3.916,1.543,5.379-0.312,9.033
			c-7.238-0.869-5.354-9.975-0.965-13.005c5.858-4.045,13.828-0.22,17.427,5.063c7.693,11.316-2.087,26.389-12.994,31.028
			c-13.552,5.759-29.769-1.665-38.909-12.041c-4.571-5.203-7.838-11.575-9.318-18.347
			C911.414,1270.071,909.102,1252.901,914.925,1255.583C913.734,1266.772,914.925,1255.583,914.925,1255.583z"/>
	</g>
	<g>
		<path style="fill:#603913;" d="M1130.012,1206.426c-10.166-26.697-11.406-45.881-11.406-45.881s15.542,9.719,37.558,28.701
			c18.665,16.089,18.623,41.138,11.402,45.884C1160.339,1239.878,1138.777,1229.443,1130.012,1206.426z"/>
		<path style="fill:#603913;" d="M1122.422,1156.482c15.617,2.588,51.933,16.089,65.916-0.984
			C1196.789,1178.494,1157.193,1193.328,1122.422,1156.482z"/>
		<path style="fill:#603913;" d="M1113.293,1162.485c-3.855,15.356-5.911,54.045-27.126,60.083
			C1103.901,1239.475,1133.262,1209.041,1113.293,1162.485z"/>
		<path style="fill:#603913;" d="M1123.996,1213.266c12.844,23.652-5.903,65.481-36.672,58.218
			c-10.989-2.578-22.664-14.441-18.23-26.518c1.982-5.447,7.717-10.693,13.891-9.648c5.732,0.974,11.768,10.359,4.006,13.33
			c-2.483-2.849,2.102-4.365-0.786-7.397c-4.917-5.654-11.917,2.119-12.512,7.182c-1.306,11.197,12.888,18.677,22.427,17.063
			c11.67-1.875,21.443-12.688,25.391-23.293c2.019-5.422,2.822-11.289,2.39-17.061
			C1123.65,1221.843,1119.619,1213.845,1123.996,1213.266C1126.836,1218.499,1123.996,1213.266,1123.996,1213.266z"/>
		<path style="fill:#603913;" d="M1166.938,1184.531c15.044,14.341,47.473,16.502,58.113-4.827c4.038-8.064,2.18-22.522-7.783-25.52
			c-4.497-1.352-12.263,0.681-12.073,6.533c0.215,6.15,5.213,2.046,6.973,5.75c-5.098,5.217-11.164-1.836-10.893-7.166
			c0.366-7.097,8.254-11.091,14.636-10.723c13.665,0.791,19.648,17.729,16.677,29.207c-3.697,14.258-19.461,22.593-33.26,23.508
			c-6.909,0.464-13.945-0.832-20.217-3.789C1176.286,1196.15,1161.265,1187.52,1166.938,1184.531
			C1175.09,1192.305,1166.938,1184.531,1166.938,1184.531z"/>
	</g>
	<g>
		<path style="fill:#603913;" d="M1252.153,996.232c-28.274-4.092-45.647-12.336-45.647-12.336s16.052-8.854,43.342-18.867
			c23.137-8.486,45.007,3.722,45.649,12.341C1296.13,985.992,1276.533,999.76,1252.153,996.232z"/>
		<path style="fill:#603913;" d="M1204.817,978.59c9.854-12.395,39.304-37.57,31.182-58.086
			C1260.203,924.302,1253.926,966.113,1204.817,978.59z"/>
		<path style="fill:#603913;" d="M1205.625,989.491c11.55,10.824,44.363,31.427,39.321,52.909
			C1268.342,1035.115,1256.018,994.662,1205.625,989.491z"/>
		<path style="fill:#603913;" d="M1255.21,1004.819c26.907,0.269,54.353,36.99,33.049,60.342
			c-7.593,8.357-23.635,12.788-32.041,3.047c-3.794-4.382-5.588-11.943-1.677-16.826c3.633-4.541,14.768-5.252,13.599,2.976
			c-3.701,0.776-2.795-3.968-6.846-2.915c-7.331,1.553-3.94,11.448,0.2,14.424c9.143,6.592,22.576-2.183,25.806-11.309
			c4.038-11.099-0.664-24.9-8.015-33.503c-3.755-4.397-8.494-7.959-13.748-10.391
			C1262.534,1009.289,1253.586,1008.928,1255.21,1004.819C1261.164,1004.875,1255.21,1004.819,1255.21,1004.819z"/>
		<path style="fill:#603913;" d="M1250.974,953.312c19.836-6.172,37.493-33.461,24.031-53.124
			c-5.088-7.447-18.625-12.85-26.089-5.599c-3.369,3.271-5.369,11.045-0.161,13.726c5.486,2.803,4.328-3.56,8.42-3.302
			c2.075,6.992-7.034,8.867-11.563,6.041c-6.03-3.773-5.679-12.608-2.256-18.003c7.331-11.555,25.044-8.556,33.63-0.382
			c10.662,10.162,10.288,27.991,4.38,40.495c-2.952,6.262-7.515,11.778-13.142,15.824
			C1265.669,950.799,1250.818,959.73,1250.974,953.312C1261.719,949.971,1250.974,953.312,1250.974,953.312z"/>
	</g>
	<g>
		<path style="fill:#603913;" d="M1165.098,802.3c-21.628,18.664-39.238,26.373-39.238,26.373s3.838-17.921,14.167-45.096
			c8.755-23.036,32.312-31.543,39.243-26.376C1186.199,762.374,1183.747,786.198,1165.098,802.3z"/>
		<path style="fill:#603913;" d="M1120.742,826.477c-2.898-15.568-2.6-54.314-23.418-61.625
			C1116.055,749.06,1143.513,781.212,1120.742,826.477z"/>
		<path style="fill:#603913;" d="M1129.502,833.01c15.745-1.625,52.815-12.891,65.728,4.987
			C1205.068,815.559,1166.45,798.351,1129.502,833.01z"/>
		<path style="fill:#603913;" d="M1173.584,805.619c17.842-20.149,63.567-16.801,67.229,14.594
			c1.335,11.214-5.833,26.235-18.701,26.194c-5.801-0.01-12.681-3.609-13.799-9.758c-1.05-5.729,5.71-14.6,11.157-8.321
			c-1.839,3.305-4.827-0.489-6.692,3.26c-3.633,6.555,6.06,10.481,11.026,9.307c10.974-2.59,13.149-18.489,8.381-26.903
			c-5.732-10.322-19.243-15.823-30.559-15.914c-5.779-0.047-11.575,1.194-16.853,3.573
			C1181.758,803.014,1175.62,809.533,1173.584,805.619C1177.532,801.152,1173.584,805.619,1173.584,805.619z"/>
		<path style="fill:#603913;" d="M1131.914,775.05c8.352-19.028-0.688-50.251-24.355-52.975
			c-8.962-1.035-21.921,5.641-21.335,16.026c0.259,4.689,4.824,11.299,10.261,9.121c5.708-2.302,0.144-5.598,3.02-8.52
			c6.638,3.014,2.087,11.122-3.015,12.687c-6.802,2.083-13.245-3.977-15.076-10.094c-3.916-13.117,9.958-24.524,21.765-25.651
			c14.658-1.388,27.876,10.582,33.445,23.239c2.798,6.344,3.975,13.396,3.338,20.304
			C1139.651,762.306,1136.662,779.375,1131.914,775.05C1136.443,764.744,1131.914,775.05,1131.914,775.05z"/>
	</g>
	<g>
		<path style="fill:#603913;" d="M962.483,742.485c-0.57,28.562-6.6,46.814-6.6,46.814s-10.773-14.825-24.087-40.671
			c-11.284-21.908-1.872-45.124,6.6-46.818C946.875,700.111,962.966,717.852,962.483,742.485z"/>
		<path style="fill:#603913;" d="M950.823,791.64c-13.513-8.251-42.136-34.357-61.493-23.759
			C890.102,743.392,932.37,744.451,950.823,791.64z"/>
		<path style="fill:#603913;" d="M961.54,789.491c9.314-12.805,25.701-47.911,47.639-45.57
			C999.057,721.609,960.447,738.839,961.54,789.491z"/>
		<path style="fill:#603913;" d="M970.62,738.39c-3.063-26.741,29.98-58.517,55.789-40.266c9.231,6.506,15.613,21.875,6.99,31.418
			c-3.884,4.307-11.162,7.018-16.492,3.745c-4.956-3.044-7.036-14.003,1.275-13.861c1.225,3.576-3.594,3.268-2.049,7.159
			c2.451,7.084,11.846,2.492,14.287-1.985c5.408-9.895-4.956-22.136-14.412-24.213c-11.516-2.634-24.631,3.742-32.258,12.101
			c-3.896,4.265-6.846,9.408-8.604,14.927C974.148,730.569,974.893,739.492,970.62,738.39
			C969.941,732.468,970.62,738.39,970.62,738.39z"/>
		<path style="fill:#603913;" d="M920.032,748.964c-8.573-18.927-37.84-33.07-55.687-17.276
			c-6.755,5.968-10.449,20.073-2.327,26.575c3.656,2.945,11.622,3.966,13.638-1.532c2.1-5.79-4.07-3.854-4.317-7.945
			c6.677-2.926,9.666,5.878,7.421,10.72c-2.995,6.451-11.807,7.198-17.583,4.472c-12.377-5.851-11.589-23.794-4.541-33.33
			c8.763-11.833,26.504-13.667,39.641-9.35c6.581,2.149,12.619,5.993,17.332,11.08C915.719,734.689,926.42,748.322,920.032,748.964
			C915.388,738.708,920.032,748.964,920.032,748.964z"/>
	</g>
	<g>
		<path style="fill:#603913;" d="M1547.959,789.313c5.923,8.087,7.276,21.63-1.582,28.322c-9.141,6.909-24.114,1.907-29.961-7.362
			C1503.037,789.077,1533.174,769.115,1547.959,789.313z"/>
		<path style="fill:#603913;" d="M1514.06,751.405c18.332,15.869-4.988,40.886-22.266,25.686
			C1473.955,761.401,1496.047,735.755,1514.06,751.405z"/>
		<path style="fill:#603913;" d="M1468.725,726.201c19.785,7.698,8.303,35.255-10.928,27.984
			C1438.235,746.787,1449.055,718.516,1468.725,726.201z"/>
		<path style="fill:#603913;" d="M1423.826,718.245c18.374,1.234,16.052,26.878-1.775,26.028
			C1403.032,743.366,1405.479,716.989,1423.826,718.245z"/>
		<path style="fill:#603913;" d="M1382.278,722.642c15.264-2.747,18.884,19.126,3.889,21.792
			C1369.824,747.339,1367.026,725.366,1382.278,722.642z"/>
		<path style="fill:#603913;" d="M1347.373,734.218c11.894-4.342,18.101,12.925,6.223,17.081
			C1340.674,755.82,1335.408,738.552,1347.373,734.218z"/>
		<path style="fill:#603913;" d="M1322.28,747.102c8.914-4.388,15.108,8.506,6.267,12.777
			C1319.56,764.223,1313.369,751.476,1322.28,747.102z"/>
	</g>
	<g>
		<path style="fill:#603913;" d="M1688.735,1173.845c-18.645-3.787-27.966-25.513-20.979-42.388
			c5.681-13.735,21.734-22.876,36.416-18.447c14.976,4.514,21.372,21.909,18.145,36.177
			C1720.305,1158.279,1704.883,1177.124,1688.735,1173.845z"/>
		<path style="fill:#603913;" d="M1661.9,1238.333c-14.026-5.73-19.568-23.24-13.708-36.655
			c5.532-12.641,20.466-20.395,33.843-15.779c14.951,5.166,19.348,22.944,13.435,36.448
			C1692.131,1229.99,1675.476,1243.875,1661.9,1238.333z"/>
		<path style="fill:#603913;" d="M1622.309,1293.582c-10.783-7.876-11.919-24.158-4.067-34.441
			c7.385-9.587,21.733-13.027,32.214-6.474c11.987,7.507,11.948,23.86,3.96,34.231
			C1649.878,1292.837,1632.781,1301.228,1622.309,1293.582z"/>
		<path style="fill:#603913;" d="M1580.017,1301.165c21.729-15.92,46.082,15.318,23.44,31.917
			C1581.086,1349.483,1558.037,1317.332,1580.017,1301.165z"/>
		<path style="fill:#603913;" d="M1545.31,1360.43c-19.226,6.731-32.546-17.756-15.496-29.49
			C1550.913,1316.426,1571.045,1351.384,1545.31,1360.43C1534.861,1364.084,1550.469,1358.613,1545.31,1360.43z"/>
		<path style="fill:#603913;" d="M1484.082,1342.563c19.621-5.283,26.389,25.488,5.185,27.004
			C1466.546,1371.189,1466.968,1347.171,1484.082,1342.563z"/>
		<path style="fill:#603913;" d="M1447.163,1345.806c14.844,0.845,13.865,22.686-1.201,21.565
			C1428.257,1366.057,1432.305,1344.964,1447.163,1345.806z"/>
	</g>
	<g>
		<path style="fill:#603913;" d="M280.028,815.519c18.334-1.105,33.922,15.997,33.791,33.778
			c-0.144,16.853-14.339,32.324-31.329,33.397c-18.347,1.159-30.289-17.268-30.142-33.885
			C252.422,838.427,263.086,816.539,280.028,815.519z"/>
		<path style="fill:#603913;" d="M303.369,743.598c14.646,4.295,22.966,21.49,19.347,35.886
			c-3.723,14.807-19.603,25.283-34.699,22.219c-17.234-3.487-23.345-22.853-18.01-37.976
			C273.113,754.878,288.664,739.284,303.369,743.598z"/>
		<path style="fill:#603913;" d="M353.792,722.37c-8.128,10.907-24.602,14.275-36.005,6.689
			c-12.959-8.609-11.616-26.798-1.877-37.124C339.092,667.346,370.521,699.928,353.792,722.37z"/>
		<path style="fill:#603913;" d="M396.785,685.39c-25.149,13.886-46.607-22.371-20.431-36.997
			C404.839,632.476,422.328,671.25,396.785,685.39z"/>
		<path style="fill:#603913;" d="M452.256,659.992c-24.038,10.253-38.315-27.219-12.073-33.685
			C463.499,620.563,473.788,650.805,452.256,659.992z"/>
		<path style="fill:#603913;" d="M502.329,647.588c-20.147,2.354-24.016-28.175-3.449-29.25
			C520.563,617.201,522.573,645.195,502.329,647.588z"/>
		<path style="fill:#603913;" d="M545.012,641.336c-15.919,0.44-16.74-23.205-0.665-23.043
			C561.117,618.461,561.011,640.853,545.012,641.336z"/>
	</g>
	<g>
		<path style="fill:#603913;" d="M452.668,1201.313c-12.379,6.099-25.769-2.844-30.603-14.455
			c-4.795-11.421-1.963-26.819,10.67-31.721c11.951-4.641,26.853,2.361,31.685,13.999
			C469.452,1181.25,463.909,1195.779,452.668,1201.313z"/>
		<path style="fill:#603913;" d="M493.155,1240.115c-7.718,9.368-21.634,7.415-29.999,0.115c-8.37-7.297-12.201-20.835-3.953-29.746
			c7.776-8.406,22.173-8.267,30.996-1.255C500.091,1217.095,500.445,1231.267,493.155,1240.115z"/>
		<path style="fill:#603913;" d="M520.856,1268.735c-24.834-7.178-13.383-42.478,10.165-34.897
			C555.083,1241.584,545.477,1275.943,520.856,1268.735z"/>
		<path style="fill:#603913;" d="M575.802,1273.306c-22.252,0.43-22.123-30.42-0.553-31.563
			C597.543,1240.559,598.002,1272.92,575.802,1273.306z"/>
		<path style="fill:#603913;" d="M625.068,1264.741c-18.34,4.131-23.791-22.002-5.878-26.138
			C637.886,1234.29,643.384,1260.613,625.068,1264.741z"/>
		<path style="fill:#603913;" d="M666.515,1249.785c-14.335,5.349-22.061-15.567-7.682-20.618
			C674.153,1223.784,680.922,1244.436,666.515,1249.785z"/>
		<path style="fill:#603913;" d="M696.742,1234.424c-10.853,5.12-18.258-10.894-7.333-15.581
			C701.035,1213.855,707.599,1229.312,696.742,1234.424z"/>
	</g>
	<path style="fill:#603913;" d="M1584.802,1264.868c28.596-27.171,51.895-55.544,63.887-93.669
		c10.471-33.301,14.143-81.365-3.113-112.857c-4.441-8.108-16.57-0.517-12.158,7.525c22.588,41.228,5.645,105.683-17.646,142.815
		c-26.438,42.136-70.835,77.563-119.597,88.115c-51.336,11.104-102.307-10.74-115.852-63.603
		c-6.467-25.22,3.682-51.751,23.994-67.363c11.96-9.201,28.393-12.261,41.177-2.942c5.137,5.19,9.143,11.157,12.009,17.896
		c8.757,19.685-18.708,16.538-25.268,15.51c-9.053-1.433-12.234,12.517-3.096,13.955c18.083,2.854,50.049-2.073,43.367-28.442
		c-7.217-28.452-30.542-44.048-58.936-36.531c-19.065,5.044-31.721,15.852-39.219,29.578c-7.813-19.849-39.343-15.564-45.019,4.241
		c-4.334-3.281-10.3-3.967-16.401-1.607c-4.487,1.736-7.935,5.513-9.739,9.888c-0.828,2.009-1.065,4.516-0.799,6.658
		c0.039,0.315,0.134,0.586,0.191,0.884c-6.45-2.566-14.526-1.772-20.903,1.413c-5.22,2.603-8.757,7.109-9.897,12.786
		c-0.93,4.626,1.24,8.625,4.311,12.065c-8.061-0.542-16.655,1.729-21.311,7.524c-7.315,9.099,0.139,22.351,10.166,25.935
		c-22.586,4.717-43.594,13.162-60.291,25.664c-33.965,25.417-63.469,102.566-14.229,129.219
		c45.246,24.495,102.575-10.364,82.995-63.106c-6.77-18.22-24.307-23.357-40.351-14.905c-9.05,4.771-28.242,23.174-9.036,28.748
		c6.587,1.914,9.968-5.33,7.632-10.213c2.754-2.439,5.715-4.585,8.928-6.372c10.479-6.487,17.847,3.413,21.191,12.415
		c8.267,22.285-6.472,39.551-26.767,45.735c-48.411,14.753-63.25-38.013-48.948-73.259c28.935-71.333,143.176-77.417,203.628-47.51
		c2.234,2.783,4.592,5.391,7.068,7.788C1449.082,1339.497,1539.46,1307.949,1584.802,1264.868z M1368.767,1180.462
		c-3.266-0.229-6.543-0.22-9.814,0.068c-4.441-7.422-16.651-3.22-16.406,3.413c-2.425,0.789-4.834,1.709-7.219,2.715
		C1333.799,1166.873,1364.333,1161.308,1368.767,1180.462z M1314.101,1184.568c5.867-3.581,12.744-1.604,14.412,5.271
		c-1.187,0.608-2.368,1.236-3.535,1.89c-3.96-5.31-12.337,0.42-9.522,5.849c0.007,0.01,0.012,0.02,0.017,0.03
		c-1.323,0.908-2.637,1.836-3.931,2.788c-1.055-2.864-2.5-5.437-2.334-8.75C1309.358,1188.64,1311.653,1186.064,1314.101,1184.568z
		 M1278.63,1209.663c0.359-3.633,4.077-6.177,7.01-7.634c6.497-3.247,15.408-2.683,19.341,3.516
		c0.049,0.068-4.634,4.023-5.117,4.363c-5.347-6.265-15.776,2.344-9.763,9.729c-2.065,2.153-0.554,0.581-2.512,2.795
		C1283.559,1219.184,1278.069,1215.313,1278.63,1209.663z M1262.661,1230.935c5.176-3.159,13.213-3.889,19.272-1.743
		c-1.406,1.782-2.754,3.569-4.036,5.349c-9.629-3.454-13.901,8.081-6.577,9.907c-0.137,0.395-1.985,4.28-2.266,4.258
		C1261.106,1248.047,1254.636,1235.835,1262.661,1230.935z M1283.62,1251.626c16.316-28.938,49.897-59.79,83.708-57.063
		c-0.752,3.755-1.27,7.595-1.509,11.506c-27.61-0.288-62.168,32.595-67.324,44.314
		C1293.516,1250.625,1288.547,1251.052,1283.62,1251.626z M1336.006,1252.402c-6.365-0.742-12.73-2-19.221-2.195
		c12.654-15.344,28.904-30.862,49.216-29.956c0.337,4.075,0.874,8.157,1.67,12.217
		C1358.508,1231.091,1341.094,1242.088,1336.006,1252.402z M1351.304,1253.891c6.013-6.518,15.974-10.691,19.958-7.658
		c1.579,4.861,3.459,9.619,5.632,14.187C1368.767,1257.693,1360.159,1255.552,1351.304,1253.891z"/>
	<path style="fill:#603913;" d="M677.825,788.275c7.982,3.171,16.721,2.971,23.321-4.362c4.1-4.558,5.425-10.693,3.846-16.544
		c-0.063-0.234-0.177-0.446-0.253-0.679c0.476,0.02,0.938,0.077,1.428,0.059c6.438-0.248,12.004-4.11,15.495-9.353
		c3.777-5.677,3.368-12.615,0.485-18.508c-3.56-7.274-11.719-10.225-19.287-10.61c-4.419-0.228-4.979,6.619-0.547,6.846
		c9.592,0.49,19.256,8.255,13.661,18.417c-1.821,3.307-5.15,5.39-8.741,6.216c-3.264,0.752-6.32-0.297-9.099-2.005
		c-1.173-0.962-2.404-1.864-3.668-2.693c-1.105-0.927-2.146-1.888-3.114-2.786c-1.36-1.265-3.064-1.154-4.359-0.423
		c-2.545,0.751-4.044,4.37-1.14,6.026c8.057,4.603,18.298,12.522,9.667,22.11c-7.411,8.233-19.966,0.795-25.91-5.238
		c-1.219-1.242-2.765-1.272-4.013-0.691c-3.192-0.061-5.599,4.318-2.228,6.08c8.347,4.374,11.992,16.592,3.945,23.088
		c-8.49,6.857-19.211-1.013-23.408-8.479c-0.865-1.537-2.372-1.966-3.744-1.714c-2.684,0.009-5.139,3.114-2.75,5.486
		c8.563,8.492,4.076,21.903-7.157,24.826c-12.339,3.215-23.912-6.87-26.432-18.18c-0.963-4.32-7.728-3.115-6.764,1.206
		c3.66,16.421,19.517,27.615,36.359,23.23c9.646-2.512,15.174-11.412,15.273-20.435c6.858,4.005,15.132,4.505,23.078-0.71
		C678.701,803.908,679.999,795.682,677.825,788.275z"/>
	<path style="fill:#603913;" d="M703.122,747.883c-2.64,3.136-7.747,2.822-9.362,0.928c-1.615-1.896-0.343-6.477,2.051-8.515
		c2.391-2.038,5.637-2.154,7.252-0.259C704.679,741.932,705.647,744.887,703.122,747.883z"/>
	<path style="fill:#603913;" d="M684.907,771.105c-2.641,3.136-7.746,2.822-9.36,0.927c-1.616-1.896-0.342-6.477,2.049-8.516
		c2.393-2.037,5.637-2.153,7.252-0.258C686.466,765.153,687.432,768.108,684.907,771.105z"/>
	<path style="fill:#603913;" d="M658.526,794.337c-3.562,2.033-8.247-0.02-9.109-2.356c-0.864-2.336,1.911-6.196,4.859-7.286
		c2.948-1.086,6.035-0.079,6.898,2.257C662.036,789.288,661.925,792.395,658.526,794.337z"/>
	<path style="fill:#603913;" d="M628.147,809.276c-3.562,2.036-8.247-0.018-9.109-2.354c-0.864-2.336,1.91-6.199,4.86-7.286
		c2.947-1.089,6.034-0.081,6.897,2.256C631.658,804.226,631.548,807.335,628.147,809.276z"/>
</g>
</svg>
